<svg
    width="312"
    height="115"
    viewBox="0 0 312 115"
    fill="none"
    xmlns="http://www.w3.org/2000/svg"
>
    <path
        d="M10.8178 36.8547L23.3913 52.8575C49.5675 86.1727 91.7794 102.632 133.598 95.8307L143.999 94.1391C154.411 92.4456 164.308 88.428 172.955 82.3847L204.484 60.3484C216.091 52.2354 219.681 36.6565 212.793 24.2823V24.2823C205.204 10.6484 187.835 6.00481 174.455 14.0328L169.884 16.7756C152.419 27.2542 148.639 50.956 161.978 66.3472L171.063 76.829C173.95 80.161 177.318 83.0446 181.055 85.3848L187.977 89.7201C211.514 104.46 240.161 108.635 266.926 101.226L301.818 91.5662"
        stroke="white"
        stroke-opacity="0.55"
        stroke-width="20"
        stroke-linecap="round"
    />
</svg>