<svg width="276" height="232" viewBox="0 0 276 232" fill="none" xmlns="http://www.w3.org/2000/svg">
<g clip-path="url(#clip0_10018_68)">
<path d="M93.0312 187.728H118.731L119.463 195.429C121.076 195.169 127.726 196.883 127.726 194.546V179.286L194.776 178.727C196.395 179.266 195.624 181.851 195.996 183.337C202.112 207.967 234.854 203.15 234.372 178.636C246.425 176.902 273.256 184.838 274.882 166.655C276.559 147.909 274.739 124.272 274.83 104.915C274.9 88.7396 277.747 62.9927 272.889 47.8368C267.911 32.2912 249.105 32.5055 235.657 32.5444L236.268 0.752047L110.141 0.161133L109.087 1.69362L108.168 31.934C107.455 32.9665 99.6682 32.5769 97.8178 32.5769C90.1145 32.5769 86.2852 31.934 78.6653 35.2328C54.2122 45.8238 50.1646 76.3953 43.8938 99.441C42.9623 100.681 38.574 99.8891 36.82 100.084C23.5847 101.558 11.1269 109.59 6.10909 122.292C1.50887 133.941 0.307415 160.967 1.1298 173.798C1.20047 174.916 1.75299 179.189 2.39548 179.662L38.4198 179.942C39.1586 206.363 76.6479 205.689 76.9627 179.292L83.3554 179.331L84.0237 195.532C91.4893 195.877 94.0272 196.383 93.0249 187.733L93.0312 187.728Z" fill="white"/>
<path d="M93.0313 187.728C94.0336 196.37 91.4956 195.87 84.03 195.526L83.3618 179.324L76.9691 179.286C76.6542 205.682 39.1587 206.357 38.4262 179.935L2.40187 179.656C1.75938 179.189 1.21325 174.916 1.13615 173.792C0.313763 160.96 1.51521 133.934 6.11543 122.285C11.1333 109.578 23.5847 101.545 36.8264 100.077C38.5804 99.8827 42.9686 100.675 43.9002 99.4346C50.1709 76.3891 54.2185 45.8174 78.6716 35.2264C86.2916 31.9277 90.1208 32.564 97.8242 32.5705C99.6746 32.5705 107.462 32.9601 108.175 31.9277L109.093 1.68725L110.147 0.154785L236.274 0.745681L235.664 32.5381C249.111 32.5057 267.917 32.2848 272.895 47.8304C277.753 62.9928 274.906 88.7332 274.837 104.909C274.746 124.266 276.565 147.902 274.887 166.649C273.262 184.838 246.438 176.895 234.379 178.629C234.861 203.143 202.112 207.968 196.003 183.332C195.636 181.844 196.401 179.259 194.782 178.721L127.732 179.279V194.539C127.732 196.877 121.082 195.162 119.47 195.422L118.737 187.721H93.0377L93.0313 187.728ZM233.742 2.65478L111.663 2.00543L110.378 39.6745L232.04 38.9342L232.811 38.4148L233.736 2.65478H233.742ZM83.3939 146.818V136.753C83.3939 136.519 84.0492 135.702 84.1456 135.234C93.6031 134.844 103.17 135.383 112.653 135.155C117.195 135.045 123.485 133.065 127.726 135.455V146.818H270.037L271.032 144.577C269.909 119.065 272.806 93.4151 271.636 67.928C271.258 59.6746 270.91 46.1096 263.502 41.0836C257.842 37.2459 243.906 35.5511 237.238 36.3953C233.28 36.9017 236.474 40.3693 233.414 40.9731C228.801 41.8823 219.441 40.7979 214.109 40.9408C183.313 41.7914 152.417 40.9213 121.59 41.5901C118.737 41.6551 108.804 44.0122 107.892 40.4992L108.445 36.4277C99.1863 37.1355 90.2108 34.5706 81.473 38.0576C73.5253 41.2265 64.0036 49.5966 61.5429 57.8499C66.2974 57.6291 69.2399 61.5513 69.8439 66.0253C70.6019 71.6422 70.3515 88.2398 68.9765 93.6033C67.865 97.9411 65.5327 100.493 61.061 101.188C57.2704 101.772 50.7491 100.551 47.8708 101.35C47.2347 101.526 47.1126 102.785 46.4059 103.233C44.5877 104.389 35.7598 104.026 31.9885 104.922C11.5252 109.772 5.74281 128.383 6.01908 147.467L83.3939 146.811V146.818ZM48.6996 97.467H60.5856C62.5902 97.467 64.5626 94.8372 65.1151 92.954C66.5415 88.1358 67.1261 69.7525 65.899 64.8174C65.2501 62.2006 62.4809 60.85 59.9238 61.0447C58.5939 61.1487 59.2235 61.2656 58.8894 61.9994C57.2126 65.7136 47.3954 96.1553 48.6931 97.454L48.6996 97.467ZM125.156 137.727H85.9639V191.948C85.9639 193.435 89.4976 192.519 90.3843 192.201C90.879 190.52 89.5234 185.884 91.515 185.221L120.26 184.435C121.686 184.65 121.269 191.553 121.301 192.922H125.162V137.721L125.156 137.727ZM271.001 149.416L127.726 150.064V166.624C130.732 168.253 136.046 167.727 139.638 167.623C159.471 167.039 179.465 166.624 199.395 166.98C204.696 163.864 208.564 160.292 215.432 160.409C222.75 160.526 228.764 166.949 229.56 166.949H271.001V149.416ZM83.3939 150.064H5.65285C6.00623 150.896 5.01037 151.987 5.01037 152.338V166.624L5.9741 167.597H42.596C42.8466 167.597 45.3457 164.643 46.1682 164.065C52.0341 159.981 59.8467 159.338 66.2909 162.481C68.1413 163.382 72.3817 167.597 72.7928 167.597H83.3939V150.064ZM56.2552 170.98C44.4785 172.721 46.3224 190.442 57.9193 190.097C70.7241 189.714 69.1179 169.078 56.2552 170.98ZM197.757 170.85L127.726 171.493V175.396L196.048 174.773L197.757 170.85ZM213.664 170.987C202.203 172.662 203.584 190.455 215.329 190.104C228.365 189.714 226.74 169.078 213.664 170.987ZM269.073 170.844H232.452L233.839 174.636C243.624 174 256.242 176.384 265.572 173.48C266.073 173.324 270.345 171.87 269.073 170.844ZM39.7047 171.493H5.9741C4.66343 171.493 4.66343 176.039 5.9741 176.039H38.0985L39.7047 171.493ZM83.4004 171.487L75.048 171.5L76.4166 175.305L77.271 175.435L83.4004 175.396V171.493V171.487Z" fill="black"/>
<path d="M83.394 146.817L6.0191 147.474C5.74283 128.389 11.5316 109.779 31.9884 104.928C35.7599 104.032 44.5876 104.396 46.4059 103.24C47.1191 102.785 47.2348 101.532 47.8707 101.357C50.7492 100.558 57.2704 101.785 61.0611 101.194C65.5328 100.499 67.8651 97.941 68.9765 93.6098C70.3514 88.2461 70.602 71.6486 69.8438 66.0317C69.2399 61.5576 66.2973 57.6356 61.543 57.8563C64.0037 49.6029 73.5254 41.2393 81.4729 38.0639C90.2107 34.5769 106.71 36.5315 108.445 36.4341L107.937 40.1743C107.911 40.3627 107.834 40.538 107.706 40.6744C105.836 42.6939 118.814 41.6549 121.59 41.5964C152.417 40.9276 183.313 41.7978 214.109 40.9471C219.441 40.7977 230.626 41.3757 235.24 40.4665C238.298 39.8627 231.802 36.4276 237.232 36.3951C243.952 36.3626 257.836 37.2393 263.496 41.0835C270.904 46.1094 271.251 59.6745 271.631 67.9278C272.799 93.415 269.909 119.064 271.027 144.577L270.03 146.817H127.719V135.455C120.768 134.922 130.482 135.072 112.647 135.155C103.163 135.202 93.5902 134.844 84.1392 135.233C84.0428 135.701 83.3875 136.519 83.3875 136.753V146.817H83.394ZM247.871 77.9862C253.59 79.4343 260.329 74.3629 261.704 68.9148C262.262 66.6941 262.366 48.9666 261.678 47.4796C261.537 47.1744 260.516 46.1679 260.405 46.1679H131.909L130.945 47.1419V71.1681C130.945 71.4278 133.34 74.8823 133.822 75.4019C136.567 78.3434 141.115 80.5317 145.079 78.6357V124.09L138.294 124.701L138.654 137.734C169.956 139.305 201.439 137.824 232.811 138.35C236.203 138.408 251.058 140.564 252.708 137.734C253.236 136.824 253.262 127.753 252.895 126.493C252.265 124.324 249.599 124.668 247.884 124.74V77.9862H247.871ZM101.891 55.4537C97.9527 55.525 85.2636 56.3823 82.4109 58.4927C80.6313 59.8043 80.3486 61.9342 80.1559 64.0056C79.5391 70.7005 79.5648 83.9538 80.1559 90.6811C80.2971 92.2916 80.5542 93.9084 81.338 95.3305C85.5013 102.896 108.226 101.837 115.666 100.538C122.13 99.4149 125.721 97.8696 126.434 90.6422C127.109 83.837 126.685 71.5707 125.74 64.7329C125.4 62.2719 123.993 59.5966 121.911 58.2135C117.986 55.616 106.832 55.3628 101.891 55.4537ZM99.636 123.902C100.581 124.655 104.204 125.246 105.573 125.383C108.888 125.707 115.236 126.22 118.403 126.032C121.095 125.87 126.633 124.707 126.454 121.233C126.1 114.285 106.125 113.941 101.57 116.168C98.6081 117.61 96.5779 121.46 99.636 123.909V123.902Z" fill="white"/>
<path d="M271.001 149.416V166.949H229.559C228.77 166.949 222.757 160.526 215.432 160.409C208.564 160.299 204.696 163.864 199.395 166.98C179.465 166.624 159.471 167.039 139.638 167.623C136.046 167.727 130.732 168.253 127.726 166.624V150.064L271.001 149.416Z" fill="#F5BFE4"/>
<path d="M233.742 2.65472L232.817 38.4147L232.046 38.9342L110.385 39.6745L111.67 2.00537L233.749 2.65472H233.742ZM175.918 19.5444C176.246 9.36905 164.957 6.25865 158.572 13.3821C153.972 18.5055 154.8 26.6354 148.625 29.2912C147.687 28.5899 147.637 28.3042 147.765 27.1808C148.388 21.5574 156.785 10.9275 154.395 5.908C154.068 5.21967 152.436 4.1872 151.678 4.07033C147.739 3.45344 140.44 15.6483 136.733 17.6029C137.132 14.7782 140.049 4.90798 134.587 5.42098C130.089 5.84306 127.526 13.0314 125.04 16.512C121.391 21.6159 117.619 26.7069 113.289 31.2524C111.779 35.6289 113.777 39.2069 118.461 37.1355C120.845 36.0835 128.966 24.2652 129.646 24.7522C130.417 28.1613 133.09 28.538 136.103 27.6939C137.221 27.3822 140.01 24.9341 140.575 25.4146C138.724 28.9795 140.73 37.2977 144.887 38.2524C150.495 39.5446 152.211 35.8821 154.382 35.8173C155.635 35.7783 157.723 37.8758 159.677 38.2394C164.99 39.2329 168.651 37.0705 173.014 34.4925C173.388 34.486 173.053 39.8757 178.083 38.4341C178.816 38.2264 183.584 27.0769 185.28 24.8107C187.252 22.1808 190.221 19.499 193.247 18.2588C194.378 19.7132 184.766 35.1549 191.987 37.3627C197.108 38.9277 199.601 35.7329 203.815 33.8042C208.004 41.7849 214.05 37.7134 218.624 32.6938C221.369 34.4147 223.296 35.6744 226.701 34.8627C232.58 33.4666 231.957 25.512 225.371 26.6939C224.221 25.5965 233.106 14.1807 227.485 12.5184C221.054 10.6223 218.033 26.2523 212.2 27.9926C212.226 24.8497 215.104 21.8431 216.055 18.9016C217.217 15.2911 217.436 10.1937 212.232 11.1028C209.88 11.5119 205.196 21.4276 203.154 24.0444C201.843 25.7262 200.14 27.0705 198.707 28.6419C198.663 26.1094 200.564 23.7068 200.905 21.1223C201.682 15.1482 200.693 9.63528 193.631 10.5119C191.672 10.7587 189.854 12.2911 188.377 12.434C187.207 12.5509 187.637 11.2652 187.04 11.1158C179.143 9.19371 180.661 16.0639 175.912 19.5444H175.918Z" fill="white"/>
<path d="M125.156 137.727V192.922H121.294C121.269 191.552 121.68 184.649 120.254 184.435L91.5086 185.221C89.5169 185.877 90.8725 190.513 90.3778 192.201C89.4912 192.525 85.9575 193.442 85.9575 191.947V137.727H125.149H125.156ZM118.088 144.22H92.3888V146.817H118.088V144.22ZM93.3525 154.61H118.088V152.013C111.786 151.825 105.418 152.24 99.1092 152.038C97.6122 151.986 95.2341 151.75 94.5917 153.783C94.3475 154.562 92.6523 154.409 93.3525 154.61ZM118.088 160.454H92.3888V163.052H118.088V160.454ZM118.088 168.246H92.3888V170.843H118.088V168.246Z" fill="white"/>
<path d="M83.3939 150.064V167.597H72.7927C72.3816 167.597 68.1412 163.382 66.2908 162.481C59.8467 159.344 52.0339 159.981 46.1681 164.065C45.3393 164.643 42.8464 167.597 42.5958 167.597H5.97399L5.01025 166.624V152.338C5.01025 151.987 6.00611 150.895 5.65274 150.064H83.3939Z" fill="#F5BFE4"/>
<path d="M48.6996 97.4669C47.4019 96.1618 57.219 65.7266 58.8959 62.0122C59.2301 61.272 58.6003 61.1551 59.9303 61.0577C62.4874 60.8564 65.2501 62.2136 65.9055 64.8304C67.1326 69.759 66.548 88.1488 65.1216 92.9669C64.5627 94.8436 62.5903 97.4799 60.5921 97.4799H48.7061L48.6996 97.4669Z" fill="white"/>
<path d="M197.757 170.85L196.042 174.766L127.719 175.396V171.486L197.757 170.85Z" fill="white"/>
<path d="M213.664 170.987C226.74 169.078 228.365 189.714 215.329 190.104C203.584 190.455 202.203 172.662 213.664 170.987Z" fill="white"/>
<path d="M56.2552 170.98C69.1115 169.078 70.7241 189.715 57.9193 190.098C46.3223 190.442 44.4784 172.721 56.2552 170.98Z" fill="white"/>
<path d="M39.7046 171.493L38.0984 176.039H5.97397C4.6633 176.039 4.6633 171.493 5.97397 171.493H39.7046Z" fill="white"/>
<path d="M269.073 170.844C270.345 171.87 266.08 173.324 265.572 173.48C256.242 176.384 243.617 174 233.839 174.636L232.452 170.844H269.073Z" fill="white"/>
<path d="M83.4003 171.487V175.396L77.2645 175.436L76.41 175.306L75.0415 171.5L83.4003 171.487Z" fill="white"/>
<path d="M247.871 77.9863V124.74C249.587 124.675 252.252 124.324 252.882 126.493C252.882 126.493 253.699 137.434 252.696 137.734C248.032 139.143 236.19 138.409 232.798 138.35C201.432 137.817 169.944 139.298 138.642 137.734L138.281 124.701L145.066 124.09V78.6356C141.102 80.5318 136.554 78.3435 133.81 75.4018C133.328 74.8889 132.485 74.5042 131.521 71.5885L130.932 47.142L131.896 46.168H260.392C260.503 46.168 261.524 47.168 261.665 47.4796C262.353 48.9666 262.249 66.694 261.691 68.9148C260.323 74.3629 253.577 79.4409 247.858 77.9863H247.871ZM151.498 48.7653H134.15C134.15 55.68 133.81 65.9732 134.902 71.7071C138.474 77.5577 144.662 77.4862 148.568 72.0967C149.101 71.3629 151.505 66.4668 151.505 65.9732V48.7653H151.498ZM173.342 48.7653H154.068C154.935 54.9536 153.483 64.3434 156.111 69.7524C159.028 75.7525 165.099 78.9018 170.111 73.1032C170.65 72.4798 173.336 68.2654 173.336 67.9212V48.7653H173.342ZM176.555 48.7653V66.6225C176.555 67.9472 179.953 73.2784 181.117 74.3499C186.397 79.2135 191.564 75.798 194.242 70.22C195.63 67.3368 195.56 63.9602 195.586 60.6615C195.599 58.9472 195.174 49.4861 194.57 49.0315L176.548 48.7588L176.555 48.7653ZM217.032 68.5707C218.047 63.4732 216.28 55.2199 217.032 49.7393L216.068 48.7653H198.4V65.3239C198.4 67.3498 202.299 73.824 204.214 75.0317C209.11 78.1291 216.042 73.5381 217.032 68.5707ZM219.602 49.4146V65.3239C219.602 65.8953 222.737 72.2979 223.443 73.1292C226.328 76.5252 230.825 77.2265 234.353 74.3889C235.117 73.772 238.233 69.1226 238.233 68.5707V50.3886L237.269 49.4146H219.602ZM258.793 49.4146H240.804V65.3239C240.804 66.1551 243.604 71.233 244.375 72.1032C247.652 75.785 251.726 76.3888 255.516 73.0512C262.256 67.1161 258.331 57.1615 258.793 49.4146ZM154.068 74.0902V124.09L207.394 124.74L207.029 115.61L215.008 115.09L215.747 124.746H217.668C216.935 121.707 217.668 115.09 221.578 115.09C225.465 114.999 225.821 117.831 225.885 118.058C225.885 119.977 225.782 122.675 226.026 124.74H227.954V114.019C227.954 113.837 228.616 112.506 229.04 112.376L236.949 113.045V124.733C238.407 124.922 239.339 124.681 239.551 123.09L238.87 74.0837C233.447 81.6161 223.103 80.9473 219.589 72.142H218.644C212.81 82.1746 202.788 81.3824 197.436 71.4992C191.056 82.6292 181.547 82.1681 174.949 71.4927C171.961 76.7914 167.226 80.8825 160.788 78.6616C157.981 77.6941 156.754 74.8564 154.074 74.0837L154.068 74.0902ZM148.286 77.0123V124.09H150.855C150.758 107.181 150.804 90.2786 151.492 73.4408C150.901 73.8499 148.349 76.7785 148.286 77.0123ZM244.659 124.74V76.3628C244.659 76.1616 243.354 75.1486 243.046 74.746H242.088V124.74H244.659ZM234.379 114.999H230.524V124.74H234.379V114.999ZM213.184 117.59H209.322C209.559 119.188 208.712 123.61 209.926 124.454L213.177 124.74V117.59H213.184ZM223.463 118.889H220.244V124.74H223.463V118.889ZM249.798 127.987L140.563 127.675C142.001 129.948 139.895 134.59 142.818 135.135C178.218 134.636 213.447 136.071 248.828 135.785L250.364 134.759L249.798 127.987Z" fill="black"/>
<path d="M99.636 123.902C96.5779 121.454 98.6081 117.604 101.57 116.162C106.125 113.941 126.1 114.285 126.454 121.227C126.633 124.701 121.095 125.863 118.403 126.026C115.236 126.214 108.894 125.701 105.573 125.376C104.21 125.247 100.581 124.649 99.636 123.896V123.902ZM107.693 117.772C106.491 117.844 102.791 118.454 102.02 119.214L101.39 121.162L102.45 122.039C108.451 122.039 116.392 124.467 122.123 122.649C122.907 122.402 123.325 121.714 123.858 121.168C123.119 120.318 122.104 119.857 121.102 119.422C118.262 118.201 110.892 117.578 107.693 117.772Z" fill="black"/>
<path d="M101.891 55.4536C106.826 55.3692 117.986 55.6225 121.911 58.2134C123.993 59.59 125.406 62.2719 125.74 64.733C126.685 71.5771 127.103 83.8434 126.434 90.6422C125.721 97.8695 122.13 99.4085 115.666 100.538C108.233 101.831 85.5014 102.896 81.3381 95.3305C80.5543 93.9084 80.2972 92.2915 80.1559 90.6812C79.5713 83.9539 79.5392 70.7006 80.1559 64.0057C80.3486 61.9343 80.6314 59.8044 82.411 58.4926C85.2636 56.3887 97.9528 55.5251 101.891 55.4536ZM84.1842 61.2525C83.4711 62.2654 83.4647 63.4602 83.3683 64.6485C83.0086 68.9278 82.8929 92.6552 85.0067 94.8695C88.0971 98.0967 107.731 97.863 112.621 97.4604C116.72 97.1227 122.04 96.8955 122.605 91.9669C123.17 87.0383 122.92 77.1875 122.618 71.7978C122.483 69.3239 122.052 62.3432 120.376 61.0771C117.908 59.2264 102.874 58.9991 99.1092 59.1291C96.7128 59.2134 85.3279 60.142 84.1907 61.2588L84.1842 61.2525Z" fill="black"/>
<path d="M175.918 19.5444C180.667 16.0574 179.15 9.18712 187.046 11.1157C187.644 11.2586 187.213 12.5443 188.382 12.4339C189.861 12.2845 191.685 10.7521 193.638 10.5118C200.7 9.62867 201.695 15.1482 200.911 21.1222C200.57 23.7067 198.669 26.1028 198.713 28.6418C200.147 27.0703 201.849 25.7262 203.161 24.0444C205.196 21.4274 209.88 11.5183 212.239 11.1027C217.443 10.1936 217.224 15.2911 216.061 18.9014C215.11 21.843 212.232 24.8495 212.206 27.9925C218.04 26.2521 221.06 10.6222 227.491 12.5183C233.112 14.1807 224.227 25.5963 225.378 26.6937C231.963 25.512 232.586 33.4665 226.707 34.8626C223.296 35.6743 221.369 34.408 218.631 32.6937C214.057 37.7068 208.011 41.7782 203.821 33.8042C199.601 35.7327 197.108 38.9275 191.994 37.3626C184.772 35.1548 194.384 19.7131 193.253 18.2586C190.221 19.4924 187.259 22.1807 185.287 24.8105C183.584 27.0768 178.822 38.2197 178.09 38.4341C173.06 39.8692 173.388 34.486 173.021 34.4925C168.658 37.0705 164.996 39.2327 159.683 38.2392C157.729 37.8756 155.642 35.7781 154.389 35.8171C152.217 35.8821 150.502 39.5445 144.893 38.2522C140.735 37.2912 138.731 28.9795 140.581 25.4145C140.01 24.9404 137.228 27.382 136.109 27.6937C133.09 28.5379 130.424 28.1613 129.653 24.7522C128.972 24.2651 120.851 36.0833 118.467 37.1353C113.777 39.2067 111.785 35.6289 113.295 31.2522C117.626 26.7002 121.397 21.6158 125.046 16.5118C127.533 13.0313 130.096 5.84295 134.593 5.42087C140.055 4.90787 137.132 14.778 136.739 17.6027C140.446 15.6482 147.752 3.45332 151.683 4.07022C152.443 4.18709 154.068 5.21956 154.402 5.90788C156.791 10.9274 148.395 21.5508 147.771 27.1808C147.65 28.3107 147.694 28.5899 148.632 29.2912C154.806 26.6352 153.978 18.5054 158.578 13.3819C164.964 6.26503 176.253 9.36894 175.925 19.5444H175.918ZM152.134 6.55723C150.277 4.44683 137.543 22.1417 135.114 22.1612C132.113 22.1872 135.114 14.7326 135.364 12.6547C135.551 11.0638 135.403 9.44686 135.429 7.85594C134.716 7.76504 134.157 7.84295 133.507 8.18062C132.139 8.9014 122.958 23.1937 120.909 25.9664C119.907 27.3235 113.571 33.8756 114.876 35.1223C117.735 35.6549 118.621 34.3366 120.337 32.5315C122.277 30.4924 129.222 19.2391 129.987 18.9079C130.256 18.7911 131.581 18.6547 131.581 19.2196C130.54 32.421 139.258 22.5119 144.097 18.8884C145.381 18.8624 142.683 24.2261 142.555 25.1223C141 35.7392 145.991 40.1614 154.382 32.512C156.888 33.9729 158.34 36.1028 161.527 36.4015C167.367 36.9535 174.782 29.1223 175.572 29.2912C178.001 29.8041 173.734 35.1808 176.227 36.421C179.445 31.0964 185.602 16.2001 192.951 16.2521C200.301 16.3041 189.648 30.3366 192.026 34.0704C195.199 39.0639 201.458 30.8495 203.873 29.9535C205.107 29.4924 205.595 34.4015 207.355 34.8561C211.968 38.2197 215.509 31.856 218.728 29.3431C220.012 29.1158 221.189 32.1354 223.154 32.525C228.23 33.5315 229.657 29.4339 228.275 29.2912C215.907 31.0639 228.949 16.6742 227.311 15.0118C221.612 16.2131 220.591 24.1612 216.53 27.9989C215.284 29.1807 211.075 32.0899 209.604 29.986C208.004 27.7067 213.857 19.317 214.333 15.83C214.506 14.5443 214.732 13.9275 213.505 13.0768C207.22 18.7651 205.196 31.6808 195.193 31.895C194.211 30.9015 199.08 20.8301 199.054 17.9274C199.004 11.3625 194.795 11.6742 190.13 14.1157C187.092 15.7067 183.745 20.4534 185.556 13.0703C183.615 11.2066 177.879 22.1352 176.548 23.7587C175.405 25.1483 173.117 27.5704 171.729 28.6288C165.343 33.525 154.537 35.2652 158.533 23.7197C161.906 23.2391 164.09 25.1938 167.733 24.6028C173.464 23.6742 175.905 19.6872 172.063 14.6871C167.174 8.32347 160.454 13.278 157.621 18.9144C155.275 23.5898 156.046 28.7716 150.855 30.908C145.664 33.0444 145.059 29.921 145.876 25.2196C146.473 21.7716 154.042 8.71959 152.141 6.56373L152.134 6.55723ZM169.487 26.6937C166.364 27.395 163.904 27.0249 160.865 26.1158L159.908 28.895C160.763 31.4795 168.44 28.8561 169.487 26.6937Z" fill="black"/>
<path d="M92.6477 154.446C92.6478 153.12 92.4037 153.237 92.6478 152.457C95.4857 151.9 97.612 151.993 99.1091 152.038C105.418 152.246 111.785 151.831 118.095 152.013V154.61H93.3588L92.6477 154.446Z" fill="black"/>
<path d="M118.088 144.22H92.3887V146.818H118.088V144.22Z" fill="black"/>
<path d="M118.088 160.454H92.3887V163.052H118.088V160.454Z" fill="black"/>
<path d="M118.088 168.246H92.3887V170.843H118.088V168.246Z" fill="black"/>
<path d="M154.068 74.0902C156.747 74.863 157.974 77.7006 160.781 78.6682C167.22 80.8889 171.954 76.798 174.942 71.4993C181.547 82.1812 191.049 82.6357 197.429 71.5058C202.781 81.3825 212.804 82.1812 218.637 72.1486H219.582C223.096 80.9539 233.44 81.6292 238.863 74.0967L239.545 123.103C239.332 124.688 238.4 124.928 236.943 124.746V113.058L229.033 112.389C228.61 112.519 227.947 113.857 227.947 114.032V124.746H226.019C225.776 122.688 226.03 119.267 225.465 117.326C225.4 117.099 224.169 116 222.225 115.337C218.338 115.337 216.922 121.714 217.662 124.753H215.74L215.001 115.097L207.022 115.616L207.387 124.746L154.061 124.097V74.0967L154.068 74.0902Z" fill="white"/>
<path d="M249.798 127.987L250.363 134.76L248.828 135.785C213.446 136.071 178.218 134.636 142.818 135.137C139.894 134.59 142.001 129.948 140.563 127.675L249.798 127.987Z" fill="white"/>
<path d="M173.342 48.7654V67.9213C173.342 68.259 170.65 72.4798 170.117 73.1031C165.105 78.9019 159.034 75.7526 156.117 69.7525C153.49 64.3433 154.941 54.9602 154.074 48.7654H173.349H173.342Z" fill="white"/>
<path d="M176.554 48.7654L194.576 49.0381C195.18 49.4927 195.605 58.9603 195.592 60.668C195.566 63.9667 195.636 67.3369 194.248 70.2266C191.563 75.8045 186.404 79.2201 181.123 74.3564C179.96 73.285 176.561 67.9538 176.561 66.6291V48.7719L176.554 48.7654Z" fill="#F5BFE4"/>
<path d="M217.032 68.5706C216.042 73.5447 209.11 78.1357 204.214 75.0318C202.299 73.8174 198.399 67.3499 198.399 65.324V48.7654H216.068L217.032 49.7394C216.28 55.2199 218.047 63.4733 217.032 68.5706Z" fill="white"/>
<path d="M219.601 49.415H237.269L238.233 50.389V68.5709C238.233 69.1228 235.117 73.7723 234.352 74.3891C230.825 77.2268 226.328 76.5255 223.443 73.1294C222.737 72.2982 219.601 65.8957 219.601 65.3241V49.415Z" fill="#F5BFE4"/>
<path d="M151.498 48.7654V65.9733C151.498 66.4667 149.094 71.3628 148.562 72.0966C144.662 77.4863 138.281 77.8565 134.761 72.0966C132.817 66.9486 133.465 55.68 133.465 48.7654H151.492H151.498Z" fill="#F5BFE4"/>
<path d="M258.793 49.415C258.331 57.1619 262.256 67.1229 255.516 73.0515C251.726 76.3892 247.652 75.7854 244.375 72.1034C243.598 71.2332 240.804 66.1554 240.804 65.3241V49.415H258.793Z" fill="white"/>
<path d="M148.286 77.0124C148.349 76.7787 150.901 73.85 151.492 73.4409C150.797 90.2787 150.753 107.181 150.855 124.091H148.286V77.0124Z" fill="white"/>
<path d="M244.658 124.74H242.088V74.7397H243.046C243.354 75.1487 244.658 76.1617 244.658 76.3631V124.74Z" fill="white"/>
<path d="M234.378 115H230.523V124.74H234.378V115Z" fill="#F5BFE4"/>
<path d="M213.183 117.59V124.74L209.926 124.454C208.712 123.61 209.559 119.188 209.322 117.59H213.183Z" fill="white"/>
<path d="M223.456 118.889H220.238V124.74H223.456V118.889Z" fill="#F5BFE4"/>
<path d="M84.1842 61.2524C85.3214 60.142 96.7063 59.207 99.1027 59.1225C102.868 58.9926 117.902 59.2135 120.369 61.0707C122.052 62.3303 122.476 69.3174 122.611 71.7914C122.913 77.181 123.19 86.8045 122.599 91.9603C122.007 97.1163 116.713 97.1163 112.614 97.454C107.725 97.8564 88.0906 98.0903 85.0002 94.863C82.8864 92.6551 83.0021 68.9213 83.3618 64.642C83.4582 63.4538 83.4646 62.2654 84.1777 61.2459L84.1842 61.2524Z" fill="white"/>
<path d="M107.693 117.772C110.892 117.577 118.262 118.201 121.101 119.422C122.104 119.857 123.119 120.318 123.858 121.168C123.325 121.714 122.907 122.402 122.123 122.649C116.392 124.467 108.444 122.045 102.45 122.038L101.39 121.162L102.02 119.214C102.791 118.454 106.491 117.844 107.693 117.772Z" fill="white"/>
<path d="M152.134 6.55752C154.029 8.71339 146.467 21.7654 145.869 25.2135C145.053 29.9148 145.689 33.0252 150.849 30.9018C156.007 28.7784 155.269 23.5771 157.614 18.9082C160.448 13.2718 167.168 8.31728 172.057 14.6809C175.899 19.681 173.458 23.6616 167.726 24.5966C164.084 25.1875 161.899 23.233 158.526 23.7134C154.53 35.2591 165.337 33.5187 171.723 28.6225C173.105 27.5641 175.399 25.142 176.542 23.7524C177.879 22.1291 183.615 11.1939 185.55 13.064C183.745 20.4473 187.085 15.7004 190.124 14.1095C194.789 11.668 198.997 11.3562 199.048 17.9212C199.074 20.8239 194.204 30.8953 195.186 31.8888C205.19 31.6746 207.214 18.759 213.498 13.0705C214.725 13.9212 214.5 14.538 214.326 15.8238C213.851 19.3109 207.998 27.7005 209.598 29.9798C211.075 32.0837 215.277 29.1746 216.524 27.9927C220.585 24.155 221.606 16.207 227.305 15.0056C228.943 16.668 215.901 31.0576 228.269 29.2849C229.65 29.4278 228.217 33.5252 223.148 32.5187C221.182 32.1291 220.006 29.1096 218.722 29.3368C215.503 31.8499 211.956 38.2071 207.349 34.8499C205.589 34.3954 205.107 29.4927 203.867 29.9473C201.458 30.8434 195.193 39.0578 192.02 34.0642C189.642 30.3303 200.077 16.2979 192.945 16.2459C185.813 16.194 179.445 31.0966 176.22 36.4148C173.727 35.1746 177.994 29.7979 175.566 29.2849C174.775 29.1161 167.355 36.9474 161.521 36.3953C158.333 36.0902 156.876 33.9668 154.376 32.5057C145.985 40.1616 140.987 35.733 142.548 25.116C142.677 24.22 145.381 18.8563 144.09 18.8823C139.252 22.5122 130.527 32.4214 131.574 19.2134C131.574 18.6485 130.25 18.7848 129.981 18.9017C129.216 19.2329 122.271 30.4862 120.331 32.5252C118.615 34.3304 117.722 35.6486 114.869 35.1162C113.565 33.8693 119.9 27.3174 120.902 25.9602C122.952 23.1875 132.133 8.89519 133.501 8.1744C134.15 7.83025 134.71 7.75882 135.423 7.84974C135.397 9.44065 135.545 11.0576 135.358 12.6485C135.114 14.7264 132.107 22.1745 135.108 22.155C137.536 22.1356 150.271 4.44062 152.128 6.55103L152.134 6.55752ZM166.751 15.7654C164.759 16.064 162.49 18.4212 161.148 19.8692C163.094 22.4667 166.462 22.3953 168.832 20.5057C171.57 18.3304 169.674 15.3238 166.751 15.7654Z" fill="#CCE9FF"/>
<path d="M169.487 26.6938C168.44 28.8562 160.763 31.4795 159.908 28.8952L160.865 26.116C163.904 27.025 166.365 27.3952 169.487 26.6938Z" fill="white"/>
<path d="M166.751 15.7654C169.674 15.3303 171.57 18.3304 168.832 20.5057C166.462 22.3953 163.095 22.4667 161.148 19.8693C162.49 18.4213 164.766 16.0641 166.751 15.7654Z" fill="black"/>
<path d="M188.392 200.143L191.22 198.729Z" fill="black"/>
<path d="M188.392 200.143L191.22 198.729" stroke="black" stroke-width="1.5" stroke-linecap="round"/>
<path d="M188.414 202.95L191 204Z" fill="black"/>
<path d="M188.414 202.95L191 204" stroke="black" stroke-width="1.5" stroke-linecap="round"/>
<path d="M131.828 201.069L129 199.654Z" fill="black"/>
<path d="M131.828 201.069L129 199.654" stroke="black" stroke-width="1.5" stroke-linecap="round"/>
<path d="M131.806 203.875L129.221 204.925Z" fill="black"/>
<path d="M131.806 203.875L129.221 204.925" stroke="black" stroke-width="1.5" stroke-linecap="round"/>
<g clip-path="url(#clip1_10018_68)">
<path d="M137.856 204.497C137.391 204.497 136.982 204.397 136.626 204.196C136.275 203.99 136.001 203.702 135.804 203.332C135.611 202.961 135.515 202.529 135.515 202.036C135.515 201.542 135.611 201.112 135.804 200.746C136.001 200.376 136.275 200.09 136.626 199.889C136.982 199.684 137.391 199.581 137.856 199.581C138.359 199.581 138.796 199.697 139.167 199.93C139.537 200.159 139.804 200.477 139.967 200.884L139.515 201.041C139.382 200.721 139.174 200.47 138.893 200.287C138.611 200.104 138.266 200.013 137.856 200.013C137.48 200.013 137.152 200.095 136.87 200.26C136.594 200.424 136.379 200.657 136.226 200.959C136.073 201.261 135.996 201.62 135.996 202.036C135.996 202.452 136.073 202.813 136.226 203.119C136.379 203.421 136.594 203.654 136.87 203.818C137.152 203.983 137.48 204.065 137.856 204.065C138.266 204.065 138.611 203.974 138.893 203.791C139.174 203.604 139.382 203.352 139.515 203.037L139.967 203.188C139.804 203.594 139.537 203.914 139.167 204.148C138.796 204.381 138.359 204.497 137.856 204.497ZM142.775 204.429V199.649H143.257V204.024H145.635V204.429H142.775ZM148.259 204.429V199.649H148.74V204.429H148.259ZM153.98 204.497C153.516 204.497 153.106 204.397 152.75 204.196C152.4 203.99 152.125 203.702 151.928 203.332C151.735 202.961 151.639 202.529 151.639 202.036C151.639 201.542 151.735 201.112 151.928 200.746C152.125 200.376 152.4 200.09 152.75 199.889C153.106 199.684 153.516 199.581 153.98 199.581C154.483 199.581 154.921 199.697 155.291 199.93C155.661 200.159 155.928 200.477 156.091 200.884L155.639 201.041C155.506 200.721 155.298 200.47 155.017 200.287C154.735 200.104 154.39 200.013 153.98 200.013C153.604 200.013 153.276 200.095 152.995 200.26C152.718 200.424 152.503 200.657 152.35 200.959C152.197 201.261 152.121 201.62 152.121 202.036C152.121 202.452 152.197 202.813 152.35 203.119C152.503 203.421 152.718 203.654 152.995 203.818C153.276 203.983 153.604 204.065 153.98 204.065C154.39 204.065 154.735 203.974 155.017 203.791C155.298 203.604 155.506 203.352 155.639 203.037L156.091 203.188C155.928 203.594 155.661 203.914 155.291 204.148C154.921 204.381 154.483 204.497 153.98 204.497ZM159.277 202.865V202.289L162.003 199.649H162.655L159.277 202.865ZM158.9 204.429V199.649H159.381V204.429H158.9ZM162.107 204.429L160.292 201.768L160.655 201.46L162.677 204.429H162.107ZM169.114 204.429V199.649H169.84L171.602 203.599H171.506L173.277 199.649H173.988V204.429H173.506V200.164L173.536 200.17L171.795 204.031H171.314L169.565 200.17L169.595 200.164V204.429H169.114ZM177.1 204.429V199.649H180.477V200.054H177.581V201.796H180.181V202.2H177.581V204.024H180.477V204.429H177.1ZM184.261 199.517V201.476C184.261 201.578 184.259 201.679 184.254 201.777C184.251 201.875 184.247 201.974 184.239 202.075C184.232 202.175 184.222 202.278 184.21 202.383C184.201 202.486 184.189 202.596 184.174 202.714H183.726C183.709 202.596 183.694 202.486 183.682 202.383C183.673 202.278 183.664 202.175 183.657 202.075C183.65 201.974 183.644 201.875 183.639 201.777C183.636 201.679 183.635 201.578 183.635 201.476V199.517H184.261ZM183.476 204.05C183.476 203.992 183.487 203.938 183.509 203.886C183.533 203.833 183.565 203.787 183.606 203.749C183.647 203.709 183.695 203.678 183.751 203.655C183.809 203.631 183.87 203.618 183.936 203.618C184.001 203.618 184.061 203.631 184.116 203.655C184.174 203.678 184.223 203.709 184.265 203.749C184.308 203.787 184.34 203.833 184.362 203.886C184.386 203.938 184.398 203.992 184.398 204.05C184.398 204.113 184.386 204.17 184.362 204.221C184.34 204.272 184.308 204.318 184.265 204.358C184.223 204.396 184.174 204.425 184.116 204.445C184.061 204.468 184.001 204.479 183.936 204.479C183.87 204.479 183.809 204.468 183.751 204.445C183.695 204.425 183.647 204.396 183.606 204.358C183.565 204.318 183.533 204.272 183.509 204.221C183.487 204.17 183.476 204.113 183.476 204.05Z" fill="black"/>
<mask id="mask0_10018_68" style="mask-type:luminance" maskUnits="userSpaceOnUse" x="135" y="199" width="50" height="6">
<path d="M185 199H135V205H185V199Z" fill="white"/>
<path d="M137.856 204.497C137.391 204.497 136.982 204.397 136.626 204.196C136.275 203.99 136.001 203.702 135.804 203.332C135.611 202.961 135.515 202.529 135.515 202.036C135.515 201.542 135.611 201.112 135.804 200.746C136.001 200.376 136.275 200.09 136.626 199.889C136.982 199.684 137.391 199.581 137.856 199.581C138.359 199.581 138.796 199.697 139.167 199.93C139.537 200.159 139.804 200.477 139.967 200.884L139.515 201.041C139.382 200.721 139.174 200.47 138.893 200.287C138.611 200.104 138.266 200.013 137.856 200.013C137.48 200.013 137.152 200.095 136.87 200.26C136.594 200.424 136.379 200.657 136.226 200.959C136.073 201.261 135.996 201.62 135.996 202.036C135.996 202.452 136.073 202.813 136.226 203.119C136.379 203.421 136.594 203.654 136.87 203.818C137.152 203.983 137.48 204.065 137.856 204.065C138.266 204.065 138.611 203.974 138.893 203.791C139.174 203.604 139.382 203.352 139.515 203.037L139.967 203.188C139.804 203.594 139.537 203.914 139.167 204.148C138.796 204.381 138.359 204.497 137.856 204.497ZM142.775 204.429V199.649H143.257V204.024H145.635V204.429H142.775ZM148.259 204.429V199.649H148.74V204.429H148.259ZM153.98 204.497C153.516 204.497 153.106 204.397 152.75 204.196C152.4 203.99 152.125 203.702 151.928 203.332C151.735 202.961 151.639 202.529 151.639 202.036C151.639 201.542 151.735 201.112 151.928 200.746C152.125 200.376 152.4 200.09 152.75 199.889C153.106 199.684 153.516 199.581 153.98 199.581C154.483 199.581 154.921 199.697 155.291 199.93C155.661 200.159 155.928 200.477 156.091 200.884L155.639 201.041C155.506 200.721 155.298 200.47 155.017 200.287C154.735 200.104 154.39 200.013 153.98 200.013C153.604 200.013 153.276 200.095 152.995 200.26C152.718 200.424 152.503 200.657 152.35 200.959C152.197 201.261 152.121 201.62 152.121 202.036C152.121 202.452 152.197 202.813 152.35 203.119C152.503 203.421 152.718 203.654 152.995 203.818C153.276 203.983 153.604 204.065 153.98 204.065C154.39 204.065 154.735 203.974 155.017 203.791C155.298 203.604 155.506 203.352 155.639 203.037L156.091 203.188C155.928 203.594 155.661 203.914 155.291 204.148C154.921 204.381 154.483 204.497 153.98 204.497ZM159.277 202.865V202.289L162.003 199.649H162.655L159.277 202.865ZM158.9 204.429V199.649H159.381V204.429H158.9ZM162.107 204.429L160.292 201.768L160.655 201.46L162.677 204.429H162.107ZM169.114 204.429V199.649H169.84L171.602 203.599H171.506L173.277 199.649H173.988V204.429H173.506V200.164L173.536 200.17L171.795 204.031H171.314L169.565 200.17L169.595 200.164V204.429H169.114ZM177.1 204.429V199.649H180.477V200.054H177.581V201.796H180.181V202.2H177.581V204.024H180.477V204.429H177.1ZM184.261 199.517V201.476C184.261 201.578 184.259 201.679 184.254 201.777C184.251 201.875 184.247 201.974 184.239 202.075C184.232 202.175 184.222 202.278 184.21 202.383C184.201 202.486 184.189 202.596 184.174 202.714H183.726C183.709 202.596 183.694 202.486 183.682 202.383C183.673 202.278 183.664 202.175 183.657 202.075C183.65 201.974 183.644 201.875 183.639 201.777C183.636 201.679 183.635 201.578 183.635 201.476V199.517H184.261ZM183.476 204.05C183.476 203.992 183.487 203.938 183.509 203.886C183.533 203.833 183.565 203.787 183.606 203.749C183.647 203.709 183.695 203.678 183.751 203.655C183.809 203.631 183.87 203.618 183.936 203.618C184.001 203.618 184.061 203.631 184.116 203.655C184.174 203.678 184.223 203.709 184.265 203.749C184.308 203.787 184.34 203.833 184.362 203.886C184.386 203.938 184.398 203.992 184.398 204.05C184.398 204.113 184.386 204.17 184.362 204.221C184.34 204.272 184.308 204.318 184.265 204.358C184.223 204.396 184.174 204.425 184.116 204.445C184.061 204.468 184.001 204.479 183.936 204.479C183.87 204.479 183.809 204.468 183.751 204.445C183.695 204.425 183.647 204.396 183.606 204.358C183.565 204.318 183.533 204.272 183.509 204.221C183.487 204.17 183.476 204.113 183.476 204.05Z" fill="black"/>
</mask>
<g mask="url(#mask0_10018_68)">
<path d="M136.626 204.195L136.461 204.437L136.463 204.438L136.465 204.439L136.626 204.195ZM135.804 203.331L135.526 203.455L135.527 203.458L135.804 203.331ZM135.804 200.746L135.527 200.62L135.526 200.621L135.804 200.746ZM136.626 199.889L136.789 200.132L136.79 200.131L136.626 199.889ZM139.167 199.93L138.993 200.166L138.996 200.168L139.167 199.93ZM139.967 200.883L140.076 201.151L140.363 201.05L140.256 200.784L139.967 200.883ZM139.515 201.041L139.227 201.144L139.337 201.408L139.624 201.308L139.515 201.041ZM136.87 200.259L136.706 200.018L136.704 200.019L136.87 200.259ZM136.226 203.119L135.946 203.239L135.947 203.24L136.226 203.119ZM136.87 203.818L136.704 204.059L136.706 204.06L136.87 203.818ZM138.893 203.791L139.07 204.025L139.073 204.023L138.893 203.791ZM139.515 203.037L139.62 202.768L139.337 202.673L139.228 202.932L139.515 203.037ZM139.967 203.187L140.256 203.287L140.364 203.016L140.072 202.919L139.967 203.187ZM137.856 204.211C137.442 204.211 137.089 204.122 136.787 203.952L136.465 204.439C136.875 204.671 137.341 204.783 137.856 204.783V204.211ZM136.791 203.954C136.492 203.779 136.255 203.532 136.081 203.205L135.527 203.458C135.748 203.872 136.059 204.201 136.461 204.437L136.791 203.954ZM136.082 203.207C135.913 202.883 135.824 202.495 135.824 202.035H135.206C135.206 202.563 135.309 203.039 135.526 203.455L136.082 203.207ZM135.824 202.035C135.824 201.576 135.913 201.191 136.081 200.871L135.526 200.621C135.309 201.033 135.206 201.507 135.206 202.035H135.824ZM136.081 200.873C136.255 200.546 136.491 200.303 136.789 200.132L136.463 199.646C136.06 199.878 135.748 200.206 135.527 200.62L136.081 200.873ZM136.79 200.131C137.091 199.957 137.443 199.866 137.856 199.866V199.295C137.34 199.295 136.872 199.41 136.462 199.647L136.79 200.131ZM137.856 199.866C138.305 199.866 138.68 199.969 138.993 200.166L139.34 199.694C138.913 199.425 138.413 199.295 137.856 199.295V199.866ZM138.996 200.168C139.309 200.361 139.536 200.629 139.677 200.983L140.256 200.784C140.072 200.324 139.766 199.956 139.338 199.692L138.996 200.168ZM139.858 200.616L139.406 200.774L139.624 201.308L140.076 201.151L139.858 200.616ZM139.803 200.938C139.649 200.57 139.406 200.271 139.07 200.053L138.715 200.521C138.943 200.668 139.114 200.872 139.227 201.144L139.803 200.938ZM139.07 200.053C138.727 199.83 138.317 199.727 137.856 199.727V200.298C138.215 200.298 138.495 200.378 138.715 200.521L139.07 200.053ZM137.856 199.727C137.43 199.727 137.043 199.821 136.706 200.018L137.035 200.501C137.261 200.369 137.531 200.298 137.856 200.298V199.727ZM136.704 200.019C136.374 200.215 136.122 200.492 135.947 200.837L136.505 201.08C136.636 200.822 136.814 200.632 137.037 200.5L136.704 200.019ZM135.947 200.837C135.77 201.185 135.688 201.588 135.688 202.035H136.305C136.305 201.651 136.376 201.336 136.505 201.08L135.947 200.837ZM135.688 202.035C135.688 202.483 135.77 202.887 135.946 203.239L136.506 202.999C136.376 202.738 136.305 202.419 136.305 202.035H135.688ZM135.947 203.24C136.122 203.586 136.374 203.862 136.704 204.059L137.037 203.578C136.814 203.445 136.636 203.255 136.505 202.997L135.947 203.24ZM136.706 204.06C137.043 204.257 137.43 204.351 137.856 204.351V203.779C137.531 203.779 137.261 203.709 137.035 203.577L136.706 204.06ZM137.856 204.351C138.317 204.351 138.727 204.247 139.07 204.025L138.715 203.557C138.495 203.7 138.215 203.779 137.856 203.779V204.351ZM139.073 204.023C139.405 203.801 139.649 203.504 139.802 203.141L139.228 202.932C139.115 203.2 138.943 203.405 138.712 203.559L139.073 204.023ZM139.41 203.305L139.862 203.456L140.072 202.919L139.62 202.768L139.41 203.305ZM139.677 203.088C139.536 203.442 139.308 203.713 138.993 203.911L139.34 204.384C139.766 204.115 140.072 203.746 140.256 203.287L139.677 203.088ZM138.993 203.911C138.68 204.108 138.305 204.211 137.856 204.211V204.783C138.413 204.783 138.913 204.653 139.34 204.384L138.993 203.911ZM142.775 204.429H142.467V204.714H142.775V204.429ZM142.775 199.649V199.363H142.467V199.649H142.775ZM143.257 199.649H143.566V199.363H143.257V199.649ZM143.257 204.024H142.948V204.31H143.257V204.024ZM145.635 204.024H145.943V203.738H145.635V204.024ZM145.635 204.429V204.714H145.943V204.429H145.635ZM143.084 204.429V199.649H142.467V204.429H143.084ZM142.775 199.935H143.257V199.363H142.775V199.935ZM142.948 199.649V204.024H143.566V199.649H142.948ZM143.257 204.31H145.635V203.738H143.257V204.31ZM145.326 204.024V204.429H145.943V204.024H145.326ZM145.635 204.143H142.775V204.714H145.635V204.143ZM148.259 204.429H147.95V204.714H148.259V204.429ZM148.259 199.649V199.363H147.95V199.649H148.259ZM148.74 199.649H149.049V199.363H148.74V199.649ZM148.74 204.429V204.714H149.049V204.429H148.74ZM148.567 204.429V199.649H147.95V204.429H148.567ZM148.259 199.935H148.74V199.363H148.259V199.935ZM148.432 199.649V204.429H149.049V199.649H148.432ZM148.74 204.143H148.259V204.714H148.74V204.143ZM152.75 204.195L152.585 204.437L152.587 204.438L152.589 204.439L152.75 204.195ZM151.928 203.331L151.65 203.455L151.651 203.458L151.928 203.331ZM151.928 200.746L151.651 200.62L151.651 200.621L151.928 200.746ZM152.75 199.889L152.913 200.132L152.914 200.131L152.75 199.889ZM155.291 199.93L155.117 200.166L155.12 200.168L155.291 199.93ZM156.091 200.883L156.2 201.151L156.487 201.05L156.38 200.784L156.091 200.883ZM155.639 201.041L155.351 201.144L155.461 201.408L155.748 201.308L155.639 201.041ZM152.995 200.259L152.83 200.018L152.828 200.019L152.995 200.259ZM152.35 203.119L152.07 203.239L152.071 203.24L152.35 203.119ZM152.995 203.818L152.828 204.059L152.83 204.06L152.995 203.818ZM155.017 203.791L155.194 204.025L155.197 204.023L155.017 203.791ZM155.639 203.037L155.744 202.768L155.461 202.673L155.352 202.932L155.639 203.037ZM156.091 203.187L156.38 203.287L156.489 203.016L156.196 202.919L156.091 203.187ZM153.98 204.211C153.566 204.211 153.213 204.122 152.911 203.952L152.589 204.439C152.999 204.671 153.465 204.783 153.98 204.783V204.211ZM152.915 203.954C152.616 203.779 152.379 203.532 152.205 203.205L151.651 203.458C151.872 203.872 152.183 204.201 152.585 204.437L152.915 203.954ZM152.206 203.207C152.037 202.883 151.948 202.495 151.948 202.035H151.33C151.33 202.563 151.434 203.039 151.65 203.455L152.206 203.207ZM151.948 202.035C151.948 201.576 152.037 201.191 152.205 200.871L151.651 200.621C151.433 201.033 151.33 201.507 151.33 202.035H151.948ZM152.205 200.873C152.379 200.546 152.615 200.303 152.913 200.132L152.588 199.646C152.184 199.878 151.872 200.206 151.651 200.62L152.205 200.873ZM152.914 200.131C153.215 199.957 153.567 199.866 153.98 199.866V199.295C153.464 199.295 152.996 199.41 152.587 199.647L152.914 200.131ZM153.98 199.866C154.43 199.866 154.804 199.969 155.117 200.166L155.464 199.694C155.037 199.425 154.537 199.295 153.98 199.295V199.866ZM155.12 200.168C155.433 200.361 155.66 200.629 155.802 200.983L156.38 200.784C156.196 200.324 155.89 199.956 155.462 199.692L155.12 200.168ZM155.982 200.616L155.53 200.774L155.748 201.308L156.2 201.151L155.982 200.616ZM155.927 200.938C155.773 200.57 155.53 200.271 155.194 200.053L154.84 200.521C155.067 200.668 155.238 200.872 155.351 201.144L155.927 200.938ZM155.194 200.053C154.851 199.83 154.441 199.727 153.98 199.727V200.298C154.339 200.298 154.619 200.378 154.84 200.521L155.194 200.053ZM153.98 199.727C153.554 199.727 153.167 199.821 152.83 200.018L153.159 200.501C153.386 200.369 153.655 200.298 153.98 200.298V199.727ZM152.828 200.019C152.498 200.215 152.246 200.492 152.071 200.837L152.63 201.08C152.76 200.822 152.938 200.632 153.162 200.5L152.828 200.019ZM152.071 200.837C151.894 201.185 151.812 201.588 151.812 202.035H152.429C152.429 201.651 152.5 201.336 152.63 201.08L152.071 200.837ZM151.812 202.035C151.812 202.483 151.894 202.887 152.07 203.239L152.63 202.999C152.5 202.738 152.429 202.419 152.429 202.035H151.812ZM152.071 203.24C152.246 203.586 152.498 203.862 152.828 204.059L153.162 203.578C152.938 203.445 152.76 203.255 152.63 202.997L152.071 203.24ZM152.83 204.06C153.167 204.257 153.554 204.351 153.98 204.351V203.779C153.655 203.779 153.386 203.709 153.159 203.577L152.83 204.06ZM153.98 204.351C154.441 204.351 154.851 204.247 155.194 204.025L154.84 203.557C154.619 203.7 154.339 203.779 153.98 203.779V204.351ZM155.197 204.023C155.53 203.801 155.773 203.504 155.926 203.141L155.352 202.932C155.239 203.2 155.067 203.405 154.837 203.559L155.197 204.023ZM155.534 203.305L155.986 203.456L156.196 202.919L155.744 202.768L155.534 203.305ZM155.802 203.088C155.66 203.442 155.432 203.713 155.117 203.911L155.464 204.384C155.89 204.115 156.196 203.746 156.38 203.287L155.802 203.088ZM155.117 203.911C154.804 204.108 154.43 204.211 153.98 204.211V204.783C154.537 204.783 155.037 204.653 155.464 204.384L155.117 203.911ZM159.277 202.865H158.969V203.569L159.499 203.064L159.277 202.865ZM159.277 202.289L159.054 202.092L158.969 202.174V202.289H159.277ZM162.003 199.649V199.363H161.871L161.78 199.452L162.003 199.649ZM162.655 199.649L162.876 199.848L163.386 199.363H162.655V199.649ZM158.9 204.429H158.591V204.714H158.9V204.429ZM158.9 199.649V199.363H158.591V199.649H158.9ZM159.381 199.649H159.69V199.363H159.381V199.649ZM159.381 204.429V204.714H159.69V204.429H159.381ZM162.107 204.429L161.846 204.581L161.937 204.714H162.107V204.429ZM160.292 201.768L160.083 201.557L159.894 201.719L160.031 201.92L160.292 201.768ZM160.655 201.459L160.916 201.307L160.719 201.017L160.446 201.249L160.655 201.459ZM162.677 204.429V204.714H163.237L162.938 204.276L162.677 204.429ZM159.586 202.865V202.289H158.969V202.865H159.586ZM159.5 202.487L162.226 199.846L161.78 199.452L159.054 202.092L159.5 202.487ZM162.003 199.935H162.655V199.363H162.003V199.935ZM162.434 199.45L159.056 202.666L159.499 203.064L162.876 199.848L162.434 199.45ZM159.208 204.429V199.649H158.591V204.429H159.208ZM158.9 199.935H159.381V199.363H158.9V199.935ZM159.072 199.649V204.429H159.69V199.649H159.072ZM159.381 204.143H158.9V204.714H159.381V204.143ZM162.368 204.276L160.553 201.615L160.031 201.92L161.846 204.581L162.368 204.276ZM160.501 201.978L160.864 201.67L160.446 201.249L160.083 201.557L160.501 201.978ZM160.394 201.612L162.416 204.581L162.938 204.276L160.916 201.307L160.394 201.612ZM162.677 204.143H162.107V204.714H162.677V204.143ZM169.114 204.429H168.805V204.714H169.114V204.429ZM169.114 199.649V199.363H168.805V199.649H169.114ZM169.84 199.649L170.125 199.54L170.046 199.363H169.84V199.649ZM171.603 203.599V203.885H172.064L171.888 203.49L171.603 203.599ZM171.506 203.599L171.221 203.489L171.044 203.885H171.506V203.599ZM173.277 199.649V199.363H173.071L172.992 199.54L173.277 199.649ZM173.988 199.649H174.296V199.363H173.988V199.649ZM173.988 204.429V204.714H174.296V204.429H173.988ZM173.506 204.429H173.198V204.714H173.506V204.429ZM173.506 200.163L173.581 199.886L173.198 199.797V200.163H173.506ZM173.536 200.17L173.821 200.28L173.959 199.974L173.611 199.893L173.536 200.17ZM171.795 204.031V204.317H172.001L172.08 204.141L171.795 204.031ZM171.314 204.031L171.029 204.141L171.108 204.317H171.314V204.031ZM169.565 200.17L169.491 199.893L169.142 199.974L169.281 200.281L169.565 200.17ZM169.595 200.163H169.904V199.797L169.52 199.886L169.595 200.163ZM169.595 204.429V204.714H169.904V204.429H169.595ZM169.422 204.429V199.649H168.805V204.429H169.422ZM169.114 199.935H169.84V199.363H169.114V199.935ZM169.554 199.758L171.317 203.708L171.888 203.49L170.125 199.54L169.554 199.758ZM171.603 203.313H171.506V203.885H171.603V203.313ZM171.791 203.708L173.562 199.759L172.992 199.54L171.221 203.489L171.791 203.708ZM173.277 199.935H173.988V199.363H173.277V199.935ZM173.679 199.649V204.429H174.296V199.649H173.679ZM173.988 204.143H173.506V204.714H173.988V204.143ZM173.815 204.429V200.163H173.198V204.429H173.815ZM173.432 200.441L173.461 200.447L173.611 199.893L173.581 199.886L173.432 200.441ZM173.251 200.06L171.51 203.921L172.08 204.141L173.821 200.28L173.251 200.06ZM171.795 203.745H171.314V204.317H171.795V203.745ZM171.599 203.92L169.85 200.06L169.281 200.281L171.029 204.141L171.599 203.92ZM169.64 200.447L169.67 200.441L169.52 199.886L169.491 199.893L169.64 200.447ZM169.286 200.163V204.429H169.904V200.163H169.286ZM169.595 204.143H169.114V204.714H169.595V204.143ZM177.1 204.429H176.791V204.714H177.1V204.429ZM177.1 199.649V199.363H176.791V199.649H177.1ZM180.478 199.649H180.786V199.363H180.478V199.649ZM180.478 200.054V200.339H180.786V200.054H180.478ZM177.581 200.054V199.768H177.273V200.054H177.581ZM177.581 201.795H177.273V202.081H177.581V201.795ZM180.181 201.795H180.49V201.51H180.181V201.795ZM180.181 202.2V202.486H180.49V202.2H180.181ZM177.581 202.2V201.914H177.273V202.2H177.581ZM177.581 204.024H177.273V204.31H177.581V204.024ZM180.478 204.024H180.786V203.738H180.478V204.024ZM180.478 204.429V204.714H180.786V204.429H180.478ZM177.408 204.429V199.649H176.791V204.429H177.408ZM177.1 199.935H180.478V199.363H177.1V199.935ZM180.169 199.649V200.054H180.786V199.649H180.169ZM180.478 199.768H177.581V200.339H180.478V199.768ZM177.273 200.054V201.795H177.89V200.054H177.273ZM177.581 202.081H180.181V201.51H177.581V202.081ZM179.873 201.795V202.2H180.49V201.795H179.873ZM180.181 201.914H177.581V202.486H180.181V201.914ZM177.273 202.2V204.024H177.89V202.2H177.273ZM177.581 204.31H180.478V203.738H177.581V204.31ZM180.169 204.024V204.429H180.786V204.024H180.169ZM180.478 204.143H177.1V204.714H180.478V204.143ZM184.261 199.517H184.569V199.231H184.261V199.517ZM184.254 201.777L183.945 201.764V201.767L183.945 201.77L184.254 201.777ZM184.21 202.383L183.903 202.353L183.903 202.355L183.903 202.358L184.21 202.383ZM184.174 202.714V203H184.45L184.481 202.746L184.174 202.714ZM183.726 202.714L183.42 202.752L183.455 203H183.726V202.714ZM183.682 202.383L183.375 202.407L183.375 202.41L183.375 202.414L183.682 202.383ZM183.639 201.777L183.33 201.783V201.786L183.331 201.79L183.639 201.777ZM183.635 199.517V199.231H183.327V199.517H183.635ZM183.509 203.886L183.224 203.776L183.223 203.779L183.221 203.782L183.509 203.886ZM183.606 203.749L183.824 203.951L183.828 203.948L183.831 203.945L183.606 203.749ZM183.751 203.655L183.874 203.917L183.877 203.916L183.88 203.915L183.751 203.655ZM184.116 203.655L183.983 203.913L183.99 203.916L183.998 203.919L184.116 203.655ZM184.265 203.749L184.04 203.945L184.046 203.951L184.053 203.957L184.265 203.749ZM184.362 203.886L184.073 203.986L184.076 203.993L184.079 204L184.362 203.886ZM184.362 204.221L184.079 204.107L184.077 204.112L184.075 204.117L184.362 204.221ZM184.116 204.445L184.008 204.178L184.001 204.18L183.993 204.183L184.116 204.445ZM183.751 204.445L183.87 204.182L183.867 204.18L183.864 204.179L183.751 204.445ZM183.606 204.358L183.382 204.554L183.385 204.557L183.388 204.56L183.606 204.358ZM183.509 204.221L183.221 204.325L183.223 204.33L183.226 204.335L183.509 204.221ZM183.952 199.517V201.475H184.569V199.517H183.952ZM183.952 201.475C183.952 201.574 183.95 201.67 183.945 201.764L184.562 201.79C184.567 201.687 184.569 201.582 184.569 201.475H183.952ZM183.945 201.77C183.943 201.864 183.938 201.959 183.931 202.056L184.547 202.094C184.555 201.989 184.56 201.886 184.562 201.783L183.945 201.77ZM183.931 202.056C183.924 202.152 183.915 202.251 183.903 202.353L184.517 202.413C184.53 202.305 184.54 202.198 184.547 202.094L183.931 202.056ZM183.903 202.358C183.894 202.458 183.882 202.566 183.868 202.682L184.481 202.746C184.496 202.626 184.508 202.513 184.518 202.408L183.903 202.358ZM184.174 202.429H183.726V203H184.174V202.429ZM184.032 202.677C184.015 202.56 184.001 202.452 183.989 202.352L183.375 202.414C183.388 202.519 183.403 202.631 183.42 202.752L184.032 202.677ZM183.99 202.359C183.98 202.255 183.972 202.154 183.965 202.056L183.349 202.094C183.357 202.196 183.365 202.3 183.375 202.407L183.99 202.359ZM183.965 202.056C183.958 201.957 183.952 201.86 183.947 201.764L183.331 201.79C183.336 201.89 183.342 201.991 183.349 202.094L183.965 202.056ZM183.948 201.77C183.945 201.674 183.944 201.576 183.944 201.475H183.327C183.327 201.58 183.328 201.683 183.33 201.783L183.948 201.77ZM183.944 201.475V199.517H183.327V201.475H183.944ZM183.635 199.802H184.261V199.231H183.635V199.802ZM183.785 204.05C183.785 204.026 183.789 204.007 183.796 203.99L183.221 203.782C183.185 203.868 183.167 203.958 183.167 204.05H183.785ZM183.794 203.996C183.803 203.974 183.814 203.96 183.824 203.951L183.388 203.547C183.316 203.613 183.262 203.691 183.224 203.776L183.794 203.996ZM183.831 203.945C183.843 203.933 183.856 203.924 183.874 203.917L183.628 203.393C183.535 203.431 183.452 203.484 183.382 203.553L183.831 203.945ZM183.88 203.915C183.896 203.908 183.914 203.904 183.936 203.904V203.333C183.827 203.333 183.722 203.353 183.622 203.395L183.88 203.915ZM183.936 203.904C183.957 203.904 183.972 203.908 183.983 203.913L184.249 203.397C184.15 203.353 184.044 203.333 183.936 203.333V203.904ZM183.998 203.919C184.018 203.927 184.03 203.935 184.04 203.945L184.489 203.553C184.417 203.482 184.331 203.428 184.235 203.391L183.998 203.919ZM184.053 203.957C184.061 203.964 184.068 203.972 184.073 203.986L184.651 203.786C184.614 203.693 184.555 203.61 184.477 203.541L184.053 203.957ZM184.079 204C184.086 204.014 184.09 204.03 184.09 204.05H184.707C184.707 203.954 184.687 203.861 184.645 203.772L184.079 204ZM184.09 204.05C184.09 204.078 184.085 204.096 184.079 204.107L184.645 204.335C184.688 204.244 184.707 204.147 184.707 204.05H184.09ZM184.075 204.117C184.069 204.13 184.061 204.143 184.046 204.156L184.483 204.56C184.555 204.493 184.612 204.414 184.65 204.325L184.075 204.117ZM184.046 204.156C184.039 204.163 184.027 204.171 184.008 204.178L184.225 204.713C184.321 204.679 184.409 204.629 184.483 204.56L184.046 204.156ZM183.993 204.183C183.98 204.189 183.961 204.193 183.936 204.193V204.764C184.04 204.764 184.142 204.746 184.239 204.707L183.993 204.183ZM183.936 204.193C183.91 204.193 183.889 204.189 183.87 204.182L183.632 204.709C183.729 204.746 183.831 204.764 183.936 204.764V204.193ZM183.864 204.179C183.847 204.173 183.835 204.165 183.824 204.156L183.388 204.56C183.46 204.627 183.545 204.677 183.639 204.711L183.864 204.179ZM183.831 204.162C183.815 204.146 183.802 204.128 183.792 204.107L183.226 204.335C183.264 204.416 183.316 204.49 183.382 204.554L183.831 204.162ZM183.796 204.117C183.79 204.103 183.785 204.082 183.785 204.05H183.167C183.167 204.144 183.184 204.236 183.221 204.325L183.796 204.117Z" fill="black"/>
</g>
</g>
</g>
<defs>
<clipPath id="clip0_10018_68">
<rect width="276" height="232" fill="white"/>
</clipPath>
<clipPath id="clip1_10018_68">
<rect width="50" height="6" fill="white" transform="translate(135 199)"/>
</clipPath>
</defs>
</svg>
