<svg width="213" height="175" viewBox="0 0 213 175" fill="none" xmlns="http://www.w3.org/2000/svg">
<path d="M71.7958 141.605H91.6292L92.1944 147.414C93.439 147.218 98.5708 148.511 98.5708 146.748V135.237L150.316 134.816C151.566 135.222 150.971 137.172 151.258 138.293C155.978 156.872 181.246 153.238 180.874 134.747C190.176 133.439 210.882 139.425 212.137 125.71C213.431 111.569 212.027 93.7399 212.097 79.1385C212.151 66.9372 214.348 47.5161 210.599 36.0838C206.757 24.3576 192.244 24.5193 181.866 24.5486L182.337 0.567315L84.9999 0.121582L84.1867 1.27755L83.4777 24.0882C82.9273 24.867 76.9178 24.5731 75.4898 24.5731C69.5448 24.5731 66.5896 24.0882 60.709 26.5765C41.8376 34.5654 38.7139 57.6258 33.8745 75.0094C33.1556 75.9449 29.769 75.3474 28.4154 75.4943C18.2012 76.6062 8.58702 82.6652 4.71457 92.2459C1.1644 101.033 0.237191 121.419 0.871858 131.098C0.9264 131.941 1.3528 135.164 1.84863 135.521L29.65 135.732C30.2202 155.662 59.1521 155.153 59.3951 135.242L64.3286 135.271L64.8443 147.492C70.6058 147.752 72.5644 148.134 71.7909 141.609L71.7958 141.605Z" fill="white"/>
<path d="M71.7958 141.605C72.5693 148.124 70.6107 147.747 64.8492 147.487L64.3335 135.266L59.4 135.237C59.157 155.148 30.2202 155.657 29.6549 135.727L1.85355 135.516C1.35771 135.164 0.936241 131.941 0.876741 131.093C0.242074 121.414 1.16928 101.028 4.71945 92.241C8.59191 82.6554 18.2012 76.5964 28.4203 75.4894C29.7739 75.3425 33.1605 75.94 33.8794 75.0045C38.7188 57.621 41.8425 34.5605 60.7139 26.5716C66.5945 24.0833 69.5497 24.5633 75.4947 24.5682C76.9227 24.5682 82.9322 24.8621 83.4826 24.0833L84.1916 1.27265L85.0048 0.116699L182.342 0.562418L181.871 24.5438C192.249 24.5193 206.762 24.3527 210.604 36.0789C214.353 47.5161 212.156 66.9323 212.102 79.1336C212.032 93.735 213.436 111.564 212.141 125.705C210.887 139.425 190.186 133.434 180.879 134.742C181.251 153.233 155.978 156.872 151.263 138.289C150.98 137.167 151.57 135.217 150.321 134.811L98.5758 135.232V146.743C98.5758 148.506 93.4439 147.213 92.1993 147.409L91.6341 141.6H71.8008L71.7958 141.605ZM180.388 2.00247L86.175 1.51266L85.1833 29.9268L179.074 29.3684L179.669 28.9766L180.383 2.00247H180.388ZM64.3583 110.746V103.154C64.3583 102.978 64.864 102.361 64.9384 102.008C72.2371 101.714 79.62 102.121 86.9385 101.949C90.4441 101.866 95.2983 100.372 98.5708 102.175V110.746H208.398L209.166 109.056C208.299 89.8116 210.535 70.4639 209.632 51.2387C209.34 45.0131 209.072 34.7809 203.355 30.9897C198.987 28.0949 188.232 26.8165 183.086 27.4533C180.031 27.8353 182.496 30.4509 180.135 30.9064C176.575 31.5922 169.351 30.7742 165.236 30.882C141.47 31.5236 117.626 30.8673 93.8356 31.3718C91.6341 31.4208 83.9685 33.1988 83.2644 30.5489L83.6908 27.4777C76.5459 28.0116 69.6191 26.0769 62.8758 28.7072C56.7423 31.0975 49.394 37.4112 47.495 43.6367C51.1642 43.4702 53.4351 46.4287 53.9012 49.8035C54.4862 54.0404 54.2929 66.5601 53.2318 70.6059C52.374 73.8779 50.5741 75.8029 47.1231 76.327C44.1977 76.7678 39.165 75.8469 36.9437 76.4494C36.4528 76.5817 36.3586 77.5319 35.8132 77.8699C34.41 78.7418 27.5972 78.4675 24.6867 79.1434C8.89437 82.8023 4.43188 96.8404 4.64509 111.236L64.3583 110.741V110.746ZM37.5833 73.5203H46.7562C48.3032 73.5203 49.8254 71.5366 50.2518 70.1161C51.3526 66.4817 51.8038 52.615 50.8568 48.8924C50.356 46.9185 48.2189 45.8997 46.2455 46.0466C45.2191 46.125 45.705 46.2132 45.4472 46.7667C44.1531 49.5684 36.5768 72.5309 37.5783 73.5105L37.5833 73.5203ZM96.5875 103.889H66.3416V144.788C66.3416 145.91 69.0687 145.219 69.753 144.979C70.1348 143.711 69.0886 140.214 70.6256 139.714L92.8092 139.121C93.91 139.283 93.5877 144.49 93.6125 145.523H96.5924V103.884L96.5875 103.889ZM209.142 112.706L98.5708 113.195V125.686C100.891 126.915 104.992 126.518 107.764 126.44C123.07 125.999 138.5 125.686 153.881 125.955C157.972 123.604 160.957 120.91 166.257 120.998C171.905 121.086 176.546 125.931 177.16 125.931H209.142V112.706ZM64.3583 113.195H4.36246C4.63517 113.822 3.86663 114.645 3.86663 114.91V125.686L4.61038 126.42H32.8729C33.0663 126.42 34.995 124.192 35.6297 123.756C40.1567 120.675 46.186 120.19 51.1592 122.561C52.5872 123.241 55.8597 126.42 56.177 126.42H64.3583V113.195ZM43.4143 128.972C34.3257 130.285 35.7487 143.652 44.6985 143.392C54.5805 143.103 53.3409 127.537 43.4143 128.972ZM152.617 128.874L98.5708 129.359V132.303L151.298 131.833L152.617 128.874ZM164.893 128.977C156.048 130.241 157.114 143.662 166.178 143.397C176.238 143.103 174.984 127.537 164.893 128.977ZM207.654 128.869H179.392L180.463 131.73C188.014 131.25 197.752 133.048 204.952 130.858C205.339 130.74 208.636 129.643 207.654 128.869ZM30.6416 129.359H4.61038C3.59888 129.359 3.59888 132.788 4.61038 132.788H29.402L30.6416 129.359ZM64.3633 129.354L57.9174 129.364L58.9736 132.234L59.633 132.332L64.3633 132.303V129.359V129.354Z" fill="black"/>
<path d="M64.3584 110.746L4.64515 111.241C4.43194 96.8454 8.89939 82.8073 24.6867 79.1484C27.5973 78.4724 34.41 78.7467 35.8132 77.8749C36.3636 77.532 36.4529 76.5866 36.9437 76.4544C39.1651 75.8519 44.1978 76.7777 47.1232 76.3319C50.5742 75.8078 52.3741 73.878 53.2318 70.6109C54.2929 66.565 54.4863 54.0454 53.9012 49.8085C53.4351 46.4336 51.1642 43.4752 47.4951 43.6417C49.3941 37.4161 56.7424 31.1073 62.8758 28.7121C69.6191 26.0818 82.3521 27.5562 83.6909 27.4827L83.2992 30.304C83.2794 30.4461 83.2199 30.5783 83.1207 30.6812C81.6778 32.2045 91.6937 31.4208 93.8357 31.3767C117.626 30.8722 141.47 31.5286 165.236 30.8869C169.351 30.7742 177.983 31.2102 181.544 30.5244C183.904 30.0689 178.891 27.4778 183.081 27.4533C188.267 27.4288 198.982 28.0901 203.35 30.9898C209.067 34.7809 209.335 45.0132 209.628 51.2387C210.53 70.464 208.299 89.8116 209.162 109.056L208.393 110.746H98.5659V102.175C93.201 101.773 100.698 101.886 86.9337 101.949C79.6152 101.984 72.2272 101.714 64.9335 102.008C64.8591 102.361 64.3534 102.978 64.3534 103.154V110.746H64.3584ZM191.292 58.8259C195.705 59.9182 200.906 56.0928 201.967 51.9832C202.398 50.3081 202.478 36.9361 201.947 35.8144C201.838 35.5842 201.05 34.825 200.965 34.825H101.799L101.055 35.5597V53.6829C101.055 53.8788 102.904 56.4846 103.276 56.8765C105.394 59.0953 108.904 60.746 111.963 59.3158V93.6028L106.727 94.0632L107.005 103.894C131.162 105.079 155.458 103.962 179.669 104.359C182.287 104.403 193.751 106.029 195.025 103.894C195.432 103.208 195.452 96.3654 195.169 95.4151C194.683 93.7791 192.625 94.0387 191.302 94.0926V58.8259H191.292ZM78.6334 41.8294C75.5939 41.8832 65.8012 42.5298 63.5997 44.1217C62.2263 45.1111 62.0081 46.7177 61.8594 48.2802C61.3834 53.3302 61.4032 63.3273 61.8594 68.4018C61.9684 69.6166 62.1668 70.8362 62.7717 71.9089C65.9847 77.6153 83.5223 76.8168 89.2641 75.8372C94.2521 74.9898 97.0239 73.8241 97.5742 68.3724C98.0949 63.2392 97.7676 53.9866 97.0387 48.8288C96.7759 46.9724 95.6901 44.9544 94.0836 43.9111C91.054 41.9518 82.4463 41.7608 78.6334 41.8294ZM76.893 93.4608C77.6219 94.0289 80.4184 94.4747 81.4745 94.5775C84.033 94.8224 88.9319 95.2094 91.3763 95.0673C93.4539 94.9449 97.7279 94.0681 97.5891 91.4476C97.3164 86.2066 81.9009 85.947 78.3855 87.6271C76.0997 88.7144 74.5329 91.619 76.893 93.4656V93.4608Z" fill="white"/>
<path d="M209.142 112.706V125.931H177.16C176.551 125.931 171.91 121.086 166.257 120.998C160.957 120.915 157.972 123.604 153.881 125.955C138.5 125.686 123.07 125.999 107.764 126.44C104.992 126.518 100.891 126.915 98.5708 125.686V113.195L209.142 112.706Z" fill="#F5BFE4"/>
<path d="M180.388 2.00251L179.674 28.9766L179.079 29.3685L85.1883 29.9269L86.18 1.5127L180.393 2.00251H180.388ZM135.763 14.7426C136.016 7.0672 127.304 4.72099 122.376 10.0943C118.826 13.9589 119.465 20.0914 114.7 22.0947C113.976 21.5657 113.937 21.3502 114.036 20.5028C114.517 16.261 120.997 8.24276 119.153 4.45649C118.9 3.93728 117.641 3.15848 117.056 3.07032C114.016 2.60499 108.383 11.8037 105.522 13.2781C105.83 11.1474 108.081 3.70217 103.866 4.08913C100.395 4.40751 98.4171 9.82975 96.4983 12.4552C93.6819 16.3051 90.7714 20.1453 87.4295 23.574C86.2643 26.8753 87.8063 29.5742 91.4209 28.0117C93.2605 27.2182 99.5278 18.3035 100.053 18.6709C100.648 21.2424 102.711 21.5265 105.036 20.8898C105.899 20.6547 108.051 18.8081 108.487 19.1705C107.059 21.8596 108.607 28.1341 111.815 28.8542C116.143 29.8289 117.467 27.0663 119.143 27.0174C120.11 26.988 121.721 28.5701 123.229 28.8444C127.329 29.5938 130.155 27.9627 133.522 26.0181C133.81 26.0132 133.552 30.0787 137.434 28.9913C137.999 28.8346 141.679 20.4244 142.988 18.715C144.51 16.7312 146.801 14.7083 149.136 13.7728C150.009 14.8699 142.591 26.5177 148.164 28.1831C152.116 29.3636 154.04 26.9537 157.292 25.4989C160.525 31.5188 165.191 28.4476 168.721 24.6613C170.839 25.9594 172.326 26.9096 174.954 26.2973C179.491 25.2442 179.01 19.244 173.928 20.1355C173.04 19.3077 179.897 10.6967 175.559 9.4428C170.596 8.01254 168.265 19.8024 163.763 21.1151C163.783 18.7444 166.004 16.4765 166.738 14.2577C167.635 11.5343 167.804 7.68926 163.788 8.37501C161.973 8.68359 158.358 16.1631 156.782 18.137C155.77 19.4056 154.456 20.4196 153.35 21.6049C153.316 19.6946 154.783 17.8823 155.046 15.9328C155.646 11.4265 154.883 7.26802 149.433 7.92927C147.921 8.1154 146.518 9.27136 145.378 9.37912C144.475 9.46729 144.807 8.49745 144.346 8.3848C138.252 6.93494 139.423 12.1172 135.758 14.7426H135.763Z" fill="white"/>
<path d="M96.5875 103.889V145.523H93.6075C93.5877 144.49 93.905 139.283 92.8043 139.121L70.6207 139.714C69.0836 140.209 70.1298 143.706 69.748 144.979C69.0638 145.224 66.3367 145.915 66.3367 144.788V103.889H96.5825H96.5875ZM91.1333 108.787H71.3V110.746H91.1333V108.787ZM72.0437 116.624H91.1333V114.665C86.2692 114.523 81.3555 114.836 76.4864 114.684C75.3311 114.645 73.4958 114.467 73 116C72.8116 116.588 71.5033 116.472 72.0437 116.624ZM91.1333 121.032H71.3V122.992H91.1333V121.032ZM91.1333 126.91H71.3V128.869H91.1333V126.91Z" fill="white"/>
<path d="M64.3584 113.195V126.42H56.1771C55.8598 126.42 52.5873 123.241 51.1593 122.561C46.1861 120.195 40.1567 120.675 35.6298 123.756C34.9902 124.192 33.0663 126.42 32.8729 126.42H4.61045L3.8667 125.686V114.91C3.8667 114.645 4.63524 113.822 4.36253 113.195H64.3584Z" fill="#F5BFE4"/>
<path d="M37.5833 73.5204C36.5818 72.5359 44.1581 49.5783 45.4522 46.7765C45.7101 46.2182 45.2241 46.13 46.2505 46.0565C48.2239 45.9047 50.356 46.9284 50.8618 48.9023C51.8088 52.62 51.3576 66.4916 50.2568 70.126C49.8255 71.5416 48.3033 73.5302 46.7612 73.5302H37.5883L37.5833 73.5204Z" fill="white"/>
<path d="M152.617 128.874L151.293 131.828L98.5659 132.303V129.354L152.617 128.874Z" fill="white"/>
<path d="M164.893 128.977C174.984 127.537 176.238 143.103 166.178 143.397C157.114 143.662 156.048 130.241 164.893 128.977Z" fill="white"/>
<path d="M43.4143 128.972C53.336 127.537 54.5805 143.104 44.6985 143.393C35.7487 143.652 34.3257 130.285 43.4143 128.972Z" fill="white"/>
<path d="M30.6417 129.359L29.4021 132.788H4.61043C3.59893 132.788 3.59893 129.359 4.61043 129.359H30.6417Z" fill="white"/>
<path d="M207.654 128.869C208.636 129.643 205.344 130.74 204.952 130.858C197.752 133.048 188.009 131.25 180.463 131.73L179.392 128.869H207.654Z" fill="white"/>
<path d="M64.3633 129.354V132.303L59.6281 132.333L58.9686 132.235L57.9125 129.364L64.3633 129.354Z" fill="white"/>
<path d="M191.292 58.8259V94.0925C192.616 94.0436 194.673 93.7791 195.159 95.415C195.159 95.415 195.789 103.668 195.015 103.894C191.416 104.957 182.277 104.403 179.659 104.359C155.453 103.957 131.152 105.074 106.995 103.894L106.717 94.0632L111.953 93.6027V59.3157C108.894 60.746 105.384 59.0953 103.266 56.8764C102.894 56.4895 102.244 56.1993 101.5 54L101.045 35.5597L101.789 34.825H200.955C201.04 34.825 201.828 35.5793 201.937 35.8144C202.468 36.936 202.388 50.308 201.957 51.9832C200.901 56.0927 195.695 59.9231 191.282 58.8259H191.292ZM116.917 36.7842H103.529C103.529 42 103.266 49.7643 104.109 54.0894C106.866 58.5026 111.641 58.4487 114.656 54.3833C115.067 53.8298 116.922 50.1366 116.922 49.7643V36.7842H116.917ZM133.775 36.7842H118.9C119.569 41.4521 118.449 48.5349 120.477 52.615C122.728 57.1409 127.413 59.5165 131.281 55.1425C131.697 54.6723 133.77 51.4933 133.77 51.2337V36.7842H133.775ZM136.254 36.7842V50.2541C136.254 51.2533 138.877 55.2747 139.775 56.0829C143.85 59.7516 147.837 57.1752 149.904 52.9677C150.975 50.7929 150.921 48.2459 150.941 45.7576C150.951 44.4645 150.623 37.3279 150.157 36.985L136.249 36.7793L136.254 36.7842ZM167.492 51.7236C168.275 47.8785 166.912 41.653 167.492 37.5189L166.748 36.7842H153.113V49.2745C153.113 50.8027 156.122 55.6862 157.6 56.5972C161.378 58.9336 166.728 55.4706 167.492 51.7236ZM169.475 37.274V49.2745C169.475 49.7055 171.895 54.5351 172.44 55.1621C174.666 57.7238 178.137 58.2528 180.859 56.1123C181.449 55.647 183.854 52.1399 183.854 51.7236V38.0087L183.11 37.274H169.475ZM199.721 37.274H185.838V49.2745C185.838 49.9015 187.999 53.7318 188.594 54.3882C191.123 57.1654 194.267 57.6209 197.192 55.1033C202.393 50.6264 199.364 43.1175 199.721 37.274ZM118.9 55.887V93.6027L160.054 94.0925L159.772 87.2057L165.93 86.8139L166.5 94.0974H167.983C167.417 91.8051 167.983 86.8139 171 86.8139C174 86.7453 174.275 88.8809 174.324 89.0524C174.324 90.5 174.245 92.5349 174.433 94.0925H175.921V86.0057C175.921 85.8685 176.432 84.8644 176.759 84.7665L182.863 85.271V94.0876C183.988 94.2297 184.707 94.0485 184.871 92.8484L184.345 55.8821C180.16 61.5639 172.177 61.0594 169.465 54.4175H168.736C164.234 61.9852 156.499 61.3876 152.369 53.9326C147.445 62.3281 140.107 61.9803 135.015 53.9277C132.709 57.9246 129.055 61.0105 124.086 59.3353C121.92 58.6055 120.973 56.465 118.905 55.8821L118.9 55.887ZM114.438 58.0912V93.6027H116.421C116.346 80.8479 116.381 68.0981 116.912 55.3972C116.456 55.7058 114.487 57.9148 114.438 58.0912ZM188.813 94.0925V57.6013C188.813 57.4495 187.806 56.6854 187.568 56.3817H186.829V94.0925H188.813ZM180.879 86.7453H177.904V94.0925H180.879V86.7453ZM164.522 88.6997H161.542C161.725 89.9046 161.071 93.2403 162.008 93.877L164.517 94.0925V88.6997H164.522ZM172.455 89.6793H169.971V94.0925H172.455V89.6793ZM192.779 96.5416L108.478 96.3065C109.588 98.0209 107.962 101.523 110.218 101.934C137.538 101.557 164.725 102.64 192.03 102.424L193.216 101.65L192.779 96.5416Z" fill="black"/>
<path d="M76.893 93.4609C74.5329 91.6143 76.0997 88.7096 78.3855 87.6223C81.9009 85.9471 97.3164 86.2067 97.5891 91.4428C97.7279 94.0633 93.4538 94.9401 91.3763 95.0625C88.9318 95.2046 84.038 94.8176 81.4745 94.5727C80.4233 94.4748 77.6219 94.0241 76.893 93.456V93.4609ZM83.1108 88.837C82.1835 88.8909 79.3275 89.3513 78.7325 89.9244L78.2466 91.3938L79.0647 92.0551C83.6958 92.0551 89.8244 93.887 94.2472 92.5155C94.8521 92.3294 95.1744 91.8102 95.5859 91.3987C95.0157 90.7571 94.2323 90.4093 93.4588 90.0811C91.2672 89.1603 85.58 88.6901 83.1108 88.837Z" fill="black"/>
<path d="M78.6334 41.8293C82.4414 41.7656 91.054 41.9567 94.0836 43.911C95.6901 44.9494 96.7809 46.9724 97.0387 48.8288C97.7676 53.9914 98.0899 63.244 97.5742 68.3724C97.0238 73.824 94.2521 74.9849 89.264 75.8371C83.5273 76.8119 65.9847 77.6152 62.7717 71.9088C62.1668 70.8361 61.9684 69.6165 61.8594 68.4018C61.4082 63.3273 61.3834 53.3302 61.8594 48.2802C62.0081 46.7177 62.2263 45.1111 63.5997 44.1216C65.8012 42.5346 75.5939 41.8832 78.6334 41.8293ZM64.9682 46.2034C64.4178 46.9675 64.4129 47.8687 64.3385 48.7651C64.0609 51.993 63.9716 69.8908 65.6029 71.5611C67.9879 73.9954 83.1405 73.8191 86.9138 73.5154C90.0772 73.2607 94.1827 73.0893 94.6191 69.3716C95.0554 65.6539 94.862 58.2234 94.629 54.1579C94.5248 52.2918 94.1926 47.0262 92.8985 46.0711C90.9945 44.6751 79.392 44.5037 76.4864 44.6017C74.637 44.6653 65.8508 45.3658 64.9732 46.2082L64.9682 46.2034Z" fill="black"/>
<path d="M135.763 14.7426C139.428 12.1123 138.257 6.93001 144.351 8.38476C144.812 8.49252 144.48 9.46235 145.382 9.37908C146.523 9.26642 147.931 8.11046 149.438 7.92923C154.888 7.26308 155.656 11.4265 155.051 15.9328C154.788 17.8823 153.321 19.6897 153.355 21.6049C154.461 20.4195 155.775 19.4056 156.787 18.137C158.358 16.163 161.973 8.68845 163.793 8.37496C167.809 7.68922 167.64 11.5343 166.743 14.2576C166.009 16.4765 163.788 18.7443 163.768 21.1151C168.27 19.8023 170.601 8.0125 175.564 9.44276C179.902 10.6967 173.045 19.3076 173.933 20.1354C179.015 19.244 179.496 25.2442 174.959 26.2973C172.326 26.9096 170.839 25.9544 168.726 24.6613C165.196 28.4427 160.53 31.5138 157.297 25.4989C154.04 26.9536 152.116 29.3635 148.169 28.1831C142.596 26.5177 150.014 14.8699 149.141 13.7727C146.801 14.7034 144.515 16.7312 142.993 18.7149C141.679 20.4244 138.004 28.8296 137.439 28.9913C133.557 30.0738 133.81 26.0132 133.527 26.0181C130.16 27.9627 127.334 29.5937 123.234 28.8443C121.726 28.57 120.115 26.9879 119.148 27.0173C117.472 27.0663 116.148 29.8289 111.82 28.8541C108.611 28.1292 107.064 21.8596 108.492 19.1705C108.051 18.8129 105.904 20.6546 105.041 20.8897C102.711 21.5265 100.653 21.2424 100.058 18.6709C99.5328 18.3035 93.2654 27.2181 91.4259 28.0116C87.8063 29.5741 86.2692 26.8753 87.4344 23.5739C90.7763 20.1403 93.6869 16.3051 96.5032 12.4551C98.4221 9.82971 100.4 4.40747 103.871 4.08909C108.086 3.70213 105.83 11.1473 105.527 13.278C108.388 11.8037 114.026 2.60495 117.06 3.07028C117.646 3.15844 118.9 3.93724 119.158 4.45645C121.002 8.24272 114.522 16.2561 114.041 20.5028C113.947 21.3551 113.981 21.5657 114.705 22.0947C119.47 20.0913 118.831 13.9589 122.381 10.0942C127.309 4.72585 136.021 7.06716 135.768 14.7426H135.763ZM117.408 4.94626C115.975 3.35436 106.147 16.7018 104.273 16.7165C101.957 16.7361 104.273 11.113 104.466 9.54563C104.61 8.34558 104.496 7.12594 104.516 5.92589C103.966 5.85732 103.534 5.91609 103.033 6.1708C101.977 6.71449 94.8918 17.4953 93.3101 19.5868C92.5366 20.6105 87.6476 25.5528 88.6542 26.4932C90.8606 26.8949 91.5449 25.9005 92.8688 24.5389C94.3662 23.0008 99.7261 14.5123 100.316 14.2625C100.524 14.1744 101.546 14.0715 101.546 14.4976C100.743 24.4556 107.471 16.981 111.205 14.2478C112.196 14.2282 110.114 18.2741 110.015 18.9501C108.815 26.9585 112.667 30.2942 119.143 24.5242C121.077 25.6262 122.197 27.2328 124.657 27.4581C129.164 27.8745 134.886 21.9673 135.496 22.0947C137.37 22.4816 134.077 26.5373 136.001 27.4728C138.485 23.4564 143.236 12.22 148.908 12.2592C154.58 12.2984 146.359 22.8833 148.194 25.6997C150.643 29.4664 155.473 23.2702 157.337 22.5943C158.289 22.2465 158.666 25.9495 160.024 26.2924C163.584 28.8296 166.317 24.0294 168.801 22.1339C169.792 21.9624 170.7 24.2401 172.217 24.534C176.134 25.2932 177.235 22.2024 176.169 22.0947C166.624 23.4319 176.689 12.5776 175.425 11.3236C171.027 12.2298 170.239 18.2251 167.105 21.1199C166.143 22.0114 162.895 24.2058 161.76 22.6188C160.525 20.8995 165.042 14.5711 165.409 11.9408C165.543 10.971 165.717 10.5057 164.77 9.86401C159.92 14.1548 158.358 23.8972 150.638 24.0588C149.88 23.3094 153.638 15.7124 153.618 13.5229C153.579 8.5709 150.331 8.80601 146.731 10.6477C144.386 11.8478 141.803 15.4283 143.201 9.8591C141.703 8.45333 137.276 16.6969 136.249 17.9215C135.367 18.9697 133.601 20.7967 132.53 21.5951C127.602 25.2883 119.262 26.601 122.346 17.8921C124.949 17.5296 126.635 19.004 129.446 18.5582C133.869 17.8578 135.753 14.8503 132.788 11.0787C129.015 6.27855 123.829 10.0158 121.642 14.2674C119.832 17.7941 120.427 21.7028 116.421 23.3143C112.415 24.9258 111.948 22.5698 112.578 19.0235C113.039 16.4226 118.88 6.57735 117.413 4.95116L117.408 4.94626ZM130.8 20.1354C128.39 20.6644 126.491 20.3852 124.146 19.6995L123.407 21.7959C124.067 23.7454 129.992 21.7665 130.8 20.1354Z" fill="black"/>
<path d="M71.4999 116.5C71.5 115.5 71.3116 115.588 71.5 115C73.6901 114.58 75.3311 114.65 76.4864 114.684C81.3555 114.841 86.2692 114.528 91.1383 114.665V116.624H72.0487L71.4999 116.5Z" fill="black"/>
<path d="M91.1333 108.787H71.3V110.746H91.1333V108.787Z" fill="black"/>
<path d="M91.1333 121.032H71.3V122.992H91.1333V121.032Z" fill="black"/>
<path d="M91.1333 126.91H71.3V128.869H91.1333V126.91Z" fill="black"/>
<path d="M118.9 55.887C120.968 56.4699 121.915 58.6103 124.081 59.3402C129.05 61.0153 132.704 57.9295 135.01 53.9326C140.107 61.9901 147.44 62.3329 152.364 53.9375C156.494 61.3876 164.229 61.9901 168.731 54.4224H169.46C172.172 61.0643 180.155 61.5737 184.34 55.8919L184.866 92.8582C184.702 94.0533 183.983 94.2346 182.858 94.0974V85.2808L176.754 84.7762C176.427 84.8742 175.916 85.8832 175.916 86.0155V94.0974H174.428C174.24 92.5447 174.436 89.9645 174 88.5C173.95 88.3286 173 87.5 171.5 87C168.5 87 167.407 91.81 167.978 94.1023H166.495L165.925 86.8188L159.767 87.2106L160.049 94.0974L118.895 93.6076V55.8919L118.9 55.887Z" fill="white"/>
<path d="M192.779 96.5417L193.215 101.651L192.03 102.424C164.725 102.64 137.538 101.557 110.218 101.935C107.962 101.523 109.588 98.021 108.478 96.3066L192.779 96.5417Z" fill="white"/>
<path d="M133.775 36.7842V51.2337C133.775 51.4884 131.697 54.6722 131.286 55.1424C127.418 59.5165 122.733 57.1409 120.482 52.615C118.454 48.5348 119.574 41.457 118.905 36.7842H133.78H133.775Z" fill="white"/>
<path d="M136.254 36.7842L150.162 36.9899C150.628 37.3328 150.956 44.4743 150.946 45.7625C150.926 48.2507 150.98 50.7929 149.909 52.9726C147.837 57.1801 143.855 59.7565 139.78 56.0878C138.882 55.2796 136.259 51.2582 136.259 50.259V36.7891L136.254 36.7842Z" fill="#F5BFE4"/>
<path d="M167.492 51.7235C166.728 55.4755 161.378 58.9385 157.6 56.5972C156.122 55.6812 153.112 50.8027 153.112 49.2745V36.7842H166.748L167.492 37.5189C166.912 41.6529 168.275 47.8785 167.492 51.7235Z" fill="white"/>
<path d="M169.475 37.2742H183.11L183.854 38.0089V51.7237C183.854 52.14 181.449 55.6471 180.859 56.1124C178.137 58.2529 174.666 57.7239 172.44 55.1622C171.895 54.5352 169.475 49.7057 169.475 49.2746V37.2742Z" fill="#F5BFE4"/>
<path d="M116.917 36.7842V49.7643C116.917 50.1365 115.062 53.8297 114.651 54.3832C111.641 58.4487 106.717 58.7279 104 54.3832C102.5 50.5 103 42 103 36.7842H116.912H116.917Z" fill="#F5BFE4"/>
<path d="M199.721 37.2742C199.364 43.1177 202.393 50.6314 197.192 55.1034C194.267 57.6211 191.123 57.1656 188.594 54.3883C187.994 53.7319 185.838 49.9016 185.838 49.2746V37.2742H199.721Z" fill="white"/>
<path d="M114.438 58.0912C114.487 57.9149 116.456 55.7058 116.912 55.3972C116.376 68.0981 116.342 80.848 116.421 93.6028H114.438V58.0912Z" fill="white"/>
<path d="M188.812 94.0927H186.829V56.377H187.568C187.806 56.6855 188.812 57.4496 188.812 57.6015V94.0927Z" fill="white"/>
<path d="M180.879 86.7454H177.904V94.0926H180.879V86.7454Z" fill="#F5BFE4"/>
<path d="M164.522 88.6997V94.0926L162.008 93.8771C161.071 93.2403 161.725 89.9047 161.542 88.6997H164.522Z" fill="white"/>
<path d="M172.45 89.6794H169.966V94.0927H172.45V89.6794Z" fill="#F5BFE4"/>
<path d="M64.9682 46.2033C65.8458 45.3657 74.632 44.6604 76.4814 44.5967C79.387 44.4987 90.9895 44.6653 92.8935 46.0662C94.1926 47.0164 94.5198 52.2868 94.624 54.153C94.857 58.2184 95.0702 65.4775 94.6141 69.3666C94.1579 73.2558 90.0722 73.2558 86.9088 73.5105C83.1355 73.8141 67.9829 73.9905 65.5979 71.5561C63.9666 69.8907 64.0559 51.988 64.3335 48.7601C64.4079 47.8638 64.4128 46.9674 64.9632 46.1984L64.9682 46.2033Z" fill="white"/>
<path d="M83.1108 88.8368C85.58 88.6899 91.2672 89.1601 93.4588 90.081C94.2323 90.4091 95.0157 90.7569 95.5859 91.3986C95.1744 91.81 94.8521 92.3292 94.2472 92.5153C89.8244 93.8868 83.6909 92.0598 79.0647 92.0549L78.2466 91.3937L78.7326 89.9242C79.3276 89.3511 82.1836 88.8907 83.1108 88.8368Z" fill="white"/>
<path d="M117.408 4.94633C118.87 6.57252 113.034 16.4178 112.573 19.0187C111.943 22.565 112.434 24.9112 116.416 23.3095C120.397 21.7078 119.827 17.7844 121.637 14.2626C123.824 10.011 129.01 6.27373 132.783 11.0739C135.748 14.8455 133.864 17.8481 129.441 18.5534C126.63 18.9991 124.944 17.5248 122.341 17.8872C119.257 26.5962 127.597 25.2834 132.525 21.5902C133.592 20.7918 135.362 18.9648 136.244 17.9166C137.276 16.6921 141.703 8.4436 143.196 9.85427C141.803 15.4235 144.381 11.8429 146.726 10.6429C150.326 8.80118 153.574 8.56606 153.613 13.5181C153.633 15.7076 149.875 23.3046 150.633 24.054C158.353 23.8924 159.915 14.15 164.765 9.85917C165.712 10.5008 165.538 10.9661 165.404 11.936C165.037 14.5663 160.52 20.8947 161.755 22.614C162.895 24.201 166.138 22.0066 167.1 21.1151C170.234 18.2203 171.022 12.225 175.42 11.3188C176.684 12.5728 166.619 23.427 176.164 22.0898C177.23 22.1976 176.124 25.2883 172.212 24.5291C170.695 24.2352 169.787 21.9576 168.796 22.129C166.312 24.0246 163.575 28.8199 160.019 26.2876C158.661 25.9447 158.289 22.2466 157.332 22.5895C155.473 23.2654 150.638 29.4616 148.189 25.6949C146.354 22.8784 154.407 12.2936 148.903 12.2544C143.399 12.2152 138.485 23.4564 135.996 27.468C134.072 26.5325 137.365 22.4768 135.491 22.0898C134.881 21.9625 129.154 27.8697 124.652 27.4533C122.192 27.2231 121.067 25.6214 119.138 24.5193C112.662 30.2942 108.805 26.9537 110.01 18.9452C110.109 18.2693 112.196 14.2234 111.2 14.243C107.466 16.9811 100.733 24.4557 101.541 14.4928C101.541 14.0667 100.519 14.1695 100.311 14.2577C99.7212 14.5075 94.3612 22.996 92.8638 24.534C91.5399 25.8957 90.8507 26.89 88.6492 26.4884C87.6427 25.5479 92.5316 20.6057 93.3051 19.582C94.8868 17.4905 101.972 6.70966 103.028 6.16596C103.529 5.90636 103.961 5.85248 104.511 5.92106C104.491 7.1211 104.605 8.34075 104.461 9.5408C104.273 11.1082 101.952 16.7264 104.268 16.7117C106.142 16.697 115.97 3.34953 117.403 4.94143L117.408 4.94633ZM128.688 11.8919C127.151 12.1172 125.4 13.8952 124.364 14.9875C125.866 16.9468 128.465 16.8929 130.294 15.4676C132.407 13.8267 130.944 11.5588 128.688 11.8919Z" fill="#CCE9FF"/>
<path d="M130.8 20.1354C129.992 21.7665 124.067 23.7453 123.407 21.7959L124.146 19.6995C126.491 20.3852 128.39 20.6644 130.8 20.1354Z" fill="white"/>
<path d="M128.688 11.8919C130.944 11.5637 132.407 13.8267 130.294 15.4676C128.465 16.8929 125.867 16.9468 124.364 14.9875C125.4 13.8953 127.156 12.1172 128.688 11.8919Z" fill="black"/>
<path d="M80.42 165.8C80.42 164.976 80.604 164.24 80.972 163.592C81.348 162.936 81.856 162.428 82.496 162.068C83.144 161.7 83.868 161.516 84.668 161.516C85.604 161.516 86.424 161.756 87.128 162.236C87.832 162.716 88.324 163.38 88.604 164.228H86.672C86.48 163.828 86.208 163.528 85.856 163.328C85.512 163.128 85.112 163.028 84.656 163.028C84.168 163.028 83.732 163.144 83.348 163.376C82.972 163.6 82.676 163.92 82.46 164.336C82.252 164.752 82.148 165.24 82.148 165.8C82.148 166.352 82.252 166.84 82.46 167.264C82.676 167.68 82.972 168.004 83.348 168.236C83.732 168.46 84.168 168.572 84.656 168.572C85.112 168.572 85.512 168.472 85.856 168.272C86.208 168.064 86.48 167.76 86.672 167.36H88.604C88.324 168.216 87.832 168.884 87.128 169.364C86.432 169.836 85.612 170.072 84.668 170.072C83.868 170.072 83.144 169.892 82.496 169.532C81.856 169.164 81.348 168.656 80.972 168.008C80.604 167.36 80.42 166.624 80.42 165.8ZM91.7189 161.12V170H90.0389V161.12H91.7189ZM94.2308 162.56C93.9348 162.56 93.6868 162.468 93.4868 162.284C93.2948 162.092 93.1988 161.856 93.1988 161.576C93.1988 161.296 93.2948 161.064 93.4868 160.88C93.6868 160.688 93.9348 160.592 94.2308 160.592C94.5268 160.592 94.7708 160.688 94.9628 160.88C95.1628 161.064 95.2628 161.296 95.2628 161.576C95.2628 161.856 95.1628 162.092 94.9628 162.284C94.7708 162.468 94.5268 162.56 94.2308 162.56ZM95.0588 163.352V170H93.3788V163.352H95.0588ZM96.2866 166.676C96.2866 165.988 96.4266 165.388 96.7066 164.876C96.9866 164.356 97.3746 163.956 97.8706 163.676C98.3666 163.388 98.9346 163.244 99.5746 163.244C100.399 163.244 101.079 163.452 101.615 163.868C102.159 164.276 102.523 164.852 102.707 165.596H100.895C100.799 165.308 100.635 165.084 100.403 164.924C100.179 164.756 99.8986 164.672 99.5626 164.672C99.0826 164.672 98.7026 164.848 98.4226 165.2C98.1426 165.544 98.0026 166.036 98.0026 166.676C98.0026 167.308 98.1426 167.8 98.4226 168.152C98.7026 168.496 99.0826 168.668 99.5626 168.668C100.243 168.668 100.687 168.364 100.895 167.756H102.707C102.523 168.476 102.159 169.048 101.615 169.472C101.071 169.896 100.391 170.108 99.5746 170.108C98.9346 170.108 98.3666 169.968 97.8706 169.688C97.3746 169.4 96.9866 169 96.7066 168.488C96.4266 167.968 96.2866 167.364 96.2866 166.676ZM107.873 170L105.617 167.168V170H103.937V161.12H105.617V166.172L107.849 163.352H110.033L107.105 166.688L110.057 170H107.873ZM122.061 163.256C122.877 163.256 123.533 163.508 124.029 164.012C124.533 164.508 124.785 165.204 124.785 166.1V170H123.105V166.328C123.105 165.808 122.973 165.412 122.709 165.14C122.445 164.86 122.085 164.72 121.629 164.72C121.173 164.72 120.809 164.86 120.537 165.14C120.273 165.412 120.141 165.808 120.141 166.328V170H118.461V166.328C118.461 165.808 118.329 165.412 118.065 165.14C117.801 164.86 117.441 164.72 116.985 164.72C116.521 164.72 116.153 164.86 115.881 165.14C115.617 165.412 115.485 165.808 115.485 166.328V170H113.805V163.352H115.485V164.156C115.701 163.876 115.977 163.656 116.313 163.496C116.657 163.336 117.033 163.256 117.441 163.256C117.961 163.256 118.425 163.368 118.833 163.592C119.241 163.808 119.557 164.12 119.781 164.528C119.997 164.144 120.309 163.836 120.717 163.604C121.133 163.372 121.581 163.256 122.061 163.256ZM132.559 166.532C132.559 166.772 132.543 166.988 132.511 167.18H127.651C127.691 167.66 127.859 168.036 128.155 168.308C128.451 168.58 128.815 168.716 129.247 168.716C129.871 168.716 130.315 168.448 130.579 167.912H132.391C132.199 168.552 131.831 169.08 131.287 169.496C130.743 169.904 130.075 170.108 129.283 170.108C128.643 170.108 128.067 169.968 127.555 169.688C127.051 169.4 126.655 168.996 126.367 168.476C126.087 167.956 125.947 167.356 125.947 166.676C125.947 165.988 126.087 165.384 126.367 164.864C126.647 164.344 127.039 163.944 127.543 163.664C128.047 163.384 128.627 163.244 129.283 163.244C129.915 163.244 130.479 163.38 130.975 163.652C131.479 163.924 131.867 164.312 132.139 164.816C132.419 165.312 132.559 165.884 132.559 166.532ZM130.819 166.052C130.811 165.62 130.655 165.276 130.351 165.02C130.047 164.756 129.675 164.624 129.235 164.624C128.819 164.624 128.467 164.752 128.179 165.008C127.899 165.256 127.727 165.604 127.663 166.052H130.819ZM135.957 161.48L135.765 167.276H134.349L134.145 161.48H135.957ZM135.093 170.084C134.789 170.084 134.537 169.992 134.337 169.808C134.145 169.616 134.049 169.38 134.049 169.1C134.049 168.82 134.145 168.588 134.337 168.404C134.537 168.212 134.789 168.116 135.093 168.116C135.389 168.116 135.633 168.212 135.825 168.404C136.017 168.588 136.113 168.82 136.113 169.1C136.113 169.38 136.017 169.616 135.825 169.808C135.633 169.992 135.389 170.084 135.093 170.084Z" fill="black"/>
<path d="M76.9393 162L74.5 159.5" stroke="black" stroke-width="1.5" stroke-linecap="round"/>
<path d="M76.25 165.75H73" stroke="black" stroke-width="1.5" stroke-linecap="round"/>
<path d="M76.792 170.04L74.5 171.5" stroke="black" stroke-width="1.5" stroke-linecap="round"/>
<path d="M140.03 162L142.47 159.5" stroke="black" stroke-width="1.5" stroke-linecap="round"/>
<path d="M140.72 165.75H143.97" stroke="black" stroke-width="1.5" stroke-linecap="round"/>
<path d="M140.178 170.04L142.47 171.5" stroke="black" stroke-width="1.5" stroke-linecap="round"/>
</svg>
