<svg width="1014" height="334" viewBox="0 0 1014 334" fill="none" xmlns="http://www.w3.org/2000/svg">
<path d="M75.916 225.369C79.6854 224.631 83.267 225.241 86.6607 227.199C90.0544 229.157 92.4831 231.98 93.9469 235.668C95.269 239 95.6048 242.275 94.9544 245.494C94.3398 248.63 92.7692 251.525 90.2425 254.181C87.7159 256.836 84.3408 259.002 80.1172 260.678L53.2592 271.337L28.5406 209.055L54.2387 198.856C58.4622 197.18 62.3624 196.424 65.9392 196.588C69.5755 196.728 72.6509 197.711 75.1655 199.536C77.7396 201.338 79.6405 203.785 80.8682 206.879C82.3083 210.507 82.5308 213.931 81.5358 217.149C80.6002 220.343 78.7269 223.083 75.916 225.369ZM51.2318 229.795L62.6531 225.262C65.6275 224.082 67.658 222.519 68.7447 220.573C69.8078 218.567 69.8436 216.315 68.852 213.817C67.8605 211.318 66.2901 209.703 64.141 208.973C61.9918 208.242 59.4301 208.467 56.4558 209.647L45.0344 214.18L51.2318 229.795ZM74.2955 251.214C77.3293 250.01 79.3957 248.364 80.4947 246.275C81.6532 244.162 81.713 241.798 80.6743 239.18C79.6119 236.503 77.8932 234.775 75.5184 233.997C73.12 233.158 70.4039 233.341 67.3701 234.545L55.0564 239.432L61.7142 256.207L74.2955 251.214Z" fill="white"/>
<path d="M105.561 179.167L126.47 242.829L113.701 247.023L92.7919 183.361L105.561 179.167Z" fill="white"/>
<path d="M174.831 178.515C172.522 176.289 169.864 174.876 166.859 174.277C163.853 173.678 160.641 173.915 157.221 174.989C153.436 176.178 150.346 178.088 147.952 180.718C145.558 183.348 144.035 186.51 143.384 190.203C142.733 193.895 143.059 197.818 144.363 201.97C145.705 206.244 147.699 209.71 150.345 212.367C153.052 215.005 156.17 216.709 159.699 217.479C163.228 218.249 166.977 218.011 170.945 216.765C175.83 215.23 179.427 212.692 181.735 209.15C184.025 205.546 184.929 201.271 184.449 196.323L162.467 203.227L159.39 193.427L194.01 182.554L197.52 193.727C198.065 198.453 197.527 203.15 195.908 207.818C194.288 212.486 191.614 216.68 187.885 220.4C184.198 224.04 179.607 226.723 174.112 228.449C167.945 230.386 161.926 230.766 156.057 229.591C150.229 228.336 145.103 225.686 140.68 221.641C136.318 217.578 133.149 212.401 131.174 206.112C129.199 199.823 128.839 193.765 130.094 187.937C131.392 182.028 134.082 176.924 138.165 172.623C142.289 168.242 147.405 165.092 153.511 163.174C160.716 160.912 167.53 160.717 173.955 162.59C180.36 164.402 185.567 168.166 189.577 173.884L174.831 178.515Z" fill="white"/>
<path d="M231.63 174.981C230.048 168.581 230.064 162.512 231.678 156.773C233.339 150.957 236.309 146.036 240.589 142.012C244.915 137.91 250.184 135.091 256.397 133.555C263.667 131.759 270.496 132.048 276.884 134.425C283.273 136.801 288.369 141.014 292.171 147.062L277.167 150.771C274.908 148.033 272.22 146.225 269.102 145.347C266.046 144.455 262.748 144.446 259.207 145.321C255.417 146.258 252.253 147.996 249.716 150.535C247.226 152.996 245.542 156.049 244.663 159.695C243.846 163.325 243.975 167.315 245.05 171.664C246.11 175.951 247.854 179.541 250.283 182.435C252.759 185.251 255.68 187.199 259.046 188.279C262.458 189.281 266.059 189.314 269.849 188.377C273.39 187.502 276.305 185.957 278.593 183.744C280.927 181.453 282.456 178.57 283.179 175.095L298.184 171.386C297.652 178.571 295.114 184.704 290.568 189.783C286.068 194.785 280.153 198.192 272.822 200.004C266.609 201.539 260.64 201.531 254.917 199.979C249.24 198.35 244.319 195.38 240.155 191.069C236.053 186.743 233.212 181.38 231.63 174.981Z" fill="white"/>
<path d="M358.961 114.6L371.236 180.474L358.024 182.936L352.801 154.907L324.582 160.165L329.805 188.195L316.593 190.657L304.318 124.782L317.531 122.32L322.578 149.406L350.796 144.148L345.749 117.062L358.961 114.6Z" fill="white"/>
<path d="M424.888 158.348L398.489 162.267L395.996 175.545L382.037 177.618L396.016 107.703L411.494 105.405L445.185 168.242L431.131 170.329L424.888 158.348ZM419.7 148.248L405.992 121.944L400.518 151.096L419.7 148.248Z" fill="white"/>
<path d="M474.13 152.686L496.097 150.451L497.175 161.052L461.838 164.648L455.055 97.9837L468.426 96.6234L474.13 152.686Z" fill="white"/>
<path d="M528.609 147.64L550.652 146.348L551.275 156.985L515.816 159.065L511.894 92.1715L525.311 91.3848L528.609 147.64Z" fill="white"/>
<path d="M584.184 98.4438L584.416 115.242L606.974 114.93L607.122 125.585L584.564 125.897L584.809 143.655L610.247 143.304L610.398 154.247L571.522 154.784L570.594 87.6867L609.47 87.1491L609.622 98.092L584.184 98.4438Z" fill="white"/>
<path d="M687.757 156.099L674.324 155.645L645.463 108.66L643.91 154.617L630.477 154.163L632.744 87.0976L646.177 87.5516L675.035 134.633L676.591 88.5796L690.024 89.0337L687.757 156.099Z" fill="white"/>
<path d="M757.679 114.273C756.376 111.342 754.444 109.034 751.884 107.349C749.324 105.664 746.258 104.676 742.686 104.386C738.731 104.065 735.15 104.673 731.943 106.21C728.736 107.747 726.137 110.105 724.145 113.282C722.153 116.459 720.981 120.216 720.628 124.554C720.265 129.019 720.81 132.98 722.263 136.437C723.78 139.899 726.028 142.651 729.009 144.691C731.989 146.731 735.553 147.919 739.699 148.256C744.802 148.671 749.089 147.671 752.56 145.256C756.037 142.778 758.482 139.156 759.897 134.391L736.932 132.525L737.764 122.286L773.933 125.225L772.984 136.899C771.713 141.483 769.449 145.633 766.194 149.35C762.938 153.066 758.883 155.947 754.03 157.993C749.245 159.98 743.982 160.74 738.241 160.274C731.798 159.75 726.078 157.841 721.081 154.545C716.152 151.191 712.399 146.808 709.82 141.398C707.306 135.992 706.316 130.004 706.85 123.434C707.384 116.864 709.328 111.114 712.682 106.186C716.105 101.199 720.517 97.4798 725.917 95.0292C731.386 92.5199 737.31 91.5245 743.689 92.0428C751.216 92.6545 757.605 95.0358 762.854 99.1865C768.108 103.274 771.518 108.72 773.084 115.525L757.679 114.273Z" fill="white"/>
<path d="M806.385 108.056L804.604 124.761L827.037 127.152L825.908 137.748L803.475 135.357L801.593 153.017L826.89 155.713L825.731 166.596L787.069 162.476L794.18 95.7495L832.841 99.8693L831.681 110.752L806.385 108.056Z" fill="white"/>
<path d="M863.584 173.678C858.984 172.859 854.966 171.331 851.529 169.094C848.155 166.869 845.66 164.084 844.045 160.741C842.43 157.399 841.949 153.705 842.604 149.662L856.781 152.185C856.488 154.928 857.052 157.239 858.473 159.117C859.957 161.006 862.211 162.22 865.235 162.758C868.323 163.308 870.878 163.015 872.9 161.88C874.933 160.681 876.163 158.885 876.589 156.491C876.937 154.538 876.624 152.824 875.651 151.351C874.679 149.878 873.34 148.632 871.636 147.614C870.007 146.543 867.695 145.287 864.702 143.844C860.641 141.821 857.363 139.97 854.867 138.29C852.444 136.559 850.475 134.291 848.96 131.486C847.518 128.629 847.167 125.121 847.907 120.963C848.603 117.056 850.185 113.828 852.654 111.277C855.123 108.726 858.257 107.009 862.055 106.124C865.864 105.177 870.036 105.107 874.573 105.915C881.378 107.126 886.594 109.777 890.221 113.868C893.923 117.907 895.467 122.928 894.854 128.929L880.299 126.338C880.576 124.048 879.931 122.015 878.361 120.24C876.866 118.414 874.638 117.237 871.676 116.71C869.093 116.25 866.896 116.542 865.085 117.585C863.337 118.639 862.239 120.426 861.791 122.946C861.477 124.711 861.78 126.292 862.701 127.691C863.697 129.039 864.978 130.242 866.544 131.301C868.185 132.308 870.497 133.564 873.479 135.07C877.539 137.093 880.812 138.976 883.297 140.718C885.782 142.461 887.777 144.766 889.282 147.634C890.786 150.502 891.174 153.984 890.445 158.08C889.817 161.608 888.32 164.722 885.955 167.421C883.589 170.12 880.479 172.07 876.626 173.269C872.783 174.405 868.436 174.541 863.584 173.678ZM908.987 181.759C906.592 181.333 904.736 180.255 903.419 178.526C902.176 176.744 901.751 174.751 902.143 172.545C902.536 170.34 903.617 168.647 905.387 167.467C907.232 166.235 909.351 165.833 911.746 166.259C914.077 166.674 915.864 167.772 917.107 169.553C918.361 171.272 918.792 173.234 918.4 175.439C918.007 177.644 916.92 179.369 915.139 180.612C913.369 181.792 911.318 182.174 908.987 181.759ZM938.264 186.97C935.87 186.544 934.014 185.466 932.696 183.737C931.453 181.955 931.028 179.962 931.421 177.757C931.813 175.551 932.895 173.859 934.665 172.679C936.509 171.447 938.629 171.044 941.023 171.47C943.354 171.885 945.141 172.983 946.384 174.765C947.639 176.483 948.07 178.445 947.677 180.65C947.285 182.856 946.198 184.58 944.416 185.823C942.646 187.003 940.595 187.385 938.264 186.97ZM967.541 192.182C965.147 191.755 963.291 190.678 961.974 188.948C960.731 187.167 960.305 185.173 960.698 182.968C961.09 180.763 962.172 179.07 963.942 177.89C965.786 176.658 967.906 176.255 970.3 176.681C972.632 177.096 974.419 178.194 975.662 179.976C976.916 181.694 977.347 183.656 976.954 185.861C976.562 188.067 975.475 189.791 973.694 191.034C971.923 192.214 969.873 192.597 967.541 192.182Z" fill="white"/>
</svg>
