<svg width="831" height="306" viewBox="0 0 831 306" fill="none" xmlns="http://www.w3.org/2000/svg">
<path d="M50.651 97.0068C54.5859 97.6775 57.7996 99.4988 60.2919 102.471C62.7817 105.379 64.1068 108.783 64.2674 112.684C64.4991 118.311 62.701 122.869 58.8733 126.357C55.1068 129.779 49.7066 131.635 42.6725 131.924L11.3071 133.216L8.53504 65.8808L38.8454 64.633C45.6876 64.3513 51.0915 65.6981 55.0573 68.6735C59.087 71.6463 61.2124 75.8184 61.4335 81.1898C61.5967 85.1545 60.6772 88.4911 58.6749 91.1998C56.7366 93.9058 54.062 95.8415 50.651 97.0068ZM26.0586 92.4465L36.8015 92.0042C39.4872 91.8936 41.5098 91.2339 42.8692 90.0249C44.29 88.7494 44.953 86.9606 44.8582 84.6586C44.7634 82.3565 43.9556 80.6283 42.4349 79.4739C40.978 78.3168 38.9068 77.7936 36.221 77.9041L25.4781 78.3464L26.0586 92.4465ZM39.25 118.806C41.9997 118.693 44.0849 117.999 45.5057 116.723C46.9877 115.381 47.68 113.527 47.5826 111.161C47.4852 108.795 46.6096 106.973 44.9556 105.696C43.3656 104.417 41.1958 103.833 38.4461 103.947L26.5522 104.436L27.1643 119.304L39.25 118.806Z" fill="white"/>
<path d="M94.4537 62.9527L95.3048 130.339L78.8901 130.547L78.039 63.16L94.4537 62.9527Z" fill="white"/>
<path d="M157.713 82.6562C156.532 80.3977 154.798 78.6748 152.512 77.4875C150.291 76.2371 147.645 75.5883 144.573 75.541C139.262 75.4593 134.979 77.1536 131.725 80.6239C128.473 84.0302 126.801 88.645 126.712 94.4683C126.616 100.676 128.205 105.565 131.479 109.135C134.817 112.643 139.43 114.442 145.317 114.533C149.349 114.595 152.756 113.624 155.539 111.618C158.386 109.614 160.479 106.702 161.818 102.882L140.989 102.561L141.175 90.4665L176.883 91.0162L176.648 106.278C175.369 110.355 173.231 114.131 170.233 117.605C167.299 121.08 163.576 123.871 159.063 125.978C154.55 128.085 149.477 129.095 143.846 129.008C137.191 128.906 131.262 127.374 126.059 124.414C120.921 121.39 116.92 117.264 114.056 112.036C111.256 106.808 109.907 100.866 110.01 94.2112C110.112 87.556 111.643 81.6589 114.603 76.5198C117.627 71.3178 121.753 67.3168 126.981 64.5169C132.21 61.6531 138.151 60.2724 144.807 60.3748C152.87 60.499 159.623 62.5552 165.066 66.5434C170.573 70.5327 174.17 75.9967 175.855 82.9355L157.713 82.6562Z" fill="white"/>
<path d="M236.502 85.6743C235.401 83.3755 233.729 81.5923 231.487 80.3248C229.311 78.9967 226.69 78.2546 223.622 78.0986C218.316 77.829 213.977 79.3706 210.602 82.7236C207.231 86.0127 205.397 90.5655 205.102 96.382C204.786 102.582 206.201 107.524 209.346 111.209C212.558 114.832 217.105 116.794 222.985 117.093C227.012 117.297 230.452 116.447 233.304 114.541C236.22 112.639 238.415 109.803 239.888 106.033L219.083 104.975L219.697 92.8945L255.363 94.7076L254.588 109.952C253.166 113.981 250.895 117.678 247.776 121.044C244.721 124.414 240.902 127.071 236.317 129.017C231.732 130.963 226.627 131.793 221.003 131.507C214.355 131.169 208.484 129.428 203.389 126.286C198.361 123.082 194.509 118.817 191.832 113.49C189.219 108.167 188.081 102.181 188.419 95.5339C188.757 88.8865 190.496 83.0472 193.635 78.0161C196.842 72.9244 201.107 69.0719 206.43 66.4588C211.757 63.7818 217.744 62.6123 224.392 62.9502C232.445 63.3596 239.121 65.6535 244.42 69.8319C249.783 74.0136 253.183 79.6014 254.622 86.5955L236.502 85.6743Z" fill="white"/>
<path d="M287.635 79.6975L286.458 93.2786L308.36 95.1764L307.266 107.801L285.364 105.903L284.088 120.632L308.859 122.779L307.724 135.881L266.598 132.318L272.416 65.1774L313.542 68.741L312.406 81.8439L287.635 79.6975Z" fill="white"/>
<path d="M355.649 142.029L344.815 115.079L340.908 114.603L337.829 139.856L321.534 137.869L329.691 70.9724L357.04 74.3075C362.313 74.9505 366.68 76.4178 370.14 78.7095C373.663 81.0089 376.149 83.8909 377.596 87.3556C379.051 90.7567 379.538 94.4267 379.058 98.3655C378.516 102.813 376.761 106.628 373.794 109.812C370.89 113.004 366.903 115.033 361.833 115.897L374.041 144.272L355.649 142.029ZM342.314 103.072L352.415 104.304C355.401 104.668 357.714 104.209 359.353 102.926C361.056 101.651 362.07 99.6789 362.396 97.0106C362.706 94.4695 362.187 92.3753 360.841 90.7282C359.558 89.0889 357.423 88.0871 354.437 87.723L344.336 86.4913L342.314 103.072Z" fill="white"/>
<path d="M489.933 116.262C489.279 120.11 487.795 123.494 485.482 126.411C483.179 129.266 480.032 131.36 476.04 132.695C472.048 134.029 467.339 134.235 461.913 133.313L451.881 131.609L447.828 155.459L431.644 152.709L442.933 86.2692L469.149 90.7234C474.449 91.6239 478.773 93.2999 482.122 95.7515C485.471 98.203 487.786 101.193 489.07 104.722C490.353 108.251 490.64 112.097 489.933 116.262ZM462.869 120.232C465.961 120.758 468.387 120.423 470.148 119.23C471.909 118.036 473.015 116.114 473.465 113.464C473.915 110.814 473.506 108.634 472.239 106.926C470.971 105.217 468.791 104.1 465.699 103.575L456.898 102.08L454.067 118.737L462.869 120.232Z" fill="white"/>
<path d="M526.672 170.391L518.017 142.665L514.16 141.879L509.081 166.807L492.996 163.53L506.45 97.4943L533.447 102.995C538.652 104.055 542.888 105.865 546.155 108.425C549.484 110.997 551.733 114.068 552.9 117.637C554.079 121.143 554.273 124.84 553.481 128.728C552.587 133.118 550.534 136.782 547.323 139.72C544.174 142.671 540.039 144.376 534.916 144.834L544.827 174.09L526.672 170.391ZM516.479 130.497L526.45 132.528C529.398 133.129 531.74 132.855 533.476 131.706C535.275 130.571 536.442 128.686 536.979 126.052C537.49 123.544 537.14 121.415 535.929 119.666C534.78 117.93 532.732 116.761 529.785 116.161L519.814 114.129L516.479 130.497Z" fill="white"/>
<path d="M590.176 114.654L574.925 180.298L558.935 176.583L574.186 110.939L590.176 114.654Z" fill="white"/>
<path d="M617.557 177.403L645.607 184.732L642.21 197.735L596.14 185.698L599.295 173.624L637.643 140.779L609.778 133.499L613.176 120.495L659.245 132.532L656.091 144.607L617.557 177.403Z" fill="white"/>
<path d="M691.475 155.211L687.57 168.272L708.633 174.568L705.004 186.709L683.941 180.413L679.707 194.578L703.529 201.699L699.763 214.3L660.212 202.477L679.513 137.908L719.064 149.731L715.297 162.332L691.475 155.211Z" fill="white"/>
<path d="M738.588 228.79C733.913 227.231 729.977 225.075 726.78 222.322C723.583 219.569 721.357 216.33 720.103 212.606C718.91 208.902 718.951 204.936 720.227 200.706L736.801 206.234C736.254 208.683 736.466 210.778 737.438 212.518C738.429 214.198 740.048 215.413 742.294 216.162C744.601 216.932 746.595 217.023 748.275 216.436C749.975 215.789 751.139 214.524 751.766 212.642C752.293 211.064 752.182 209.576 751.433 208.18C750.745 206.803 749.724 205.518 748.368 204.324C747.073 203.15 745.14 201.662 742.57 199.86C738.867 197.208 735.923 194.809 733.738 192.664C731.552 190.518 729.934 187.887 728.882 184.77C727.83 181.653 727.972 178.091 729.309 174.084C731.293 168.134 734.997 164.208 740.422 162.307C745.866 160.345 752.049 160.518 758.97 162.826C766.013 165.175 771.123 168.769 774.299 173.606C777.496 178.383 778.244 183.827 776.543 189.939L759.695 184.32C760.262 182.215 760.04 180.353 759.028 178.734C758.037 177.054 756.448 175.849 754.263 175.12C752.381 174.493 750.691 174.502 749.193 175.15C747.715 175.736 746.663 176.971 746.035 178.853C745.346 180.917 745.781 182.85 747.339 184.652C748.897 186.453 751.518 188.71 755.201 191.423C758.863 194.196 761.757 196.645 763.882 198.771C766.067 200.917 767.696 203.518 768.768 206.574C769.84 209.63 769.738 213.071 768.463 216.895C767.248 220.538 765.203 223.533 762.329 225.88C759.515 228.248 756.054 229.724 751.945 230.311C747.837 230.897 743.384 230.39 738.588 228.79ZM778.74 242.284C776.008 241.372 774.025 239.834 772.791 237.668C771.638 235.462 771.456 233.175 772.246 230.807C773.056 228.379 774.584 226.628 776.831 225.556C779.138 224.504 781.658 224.434 784.39 225.345C787.061 226.236 788.973 227.784 790.127 229.991C791.341 232.217 791.543 234.545 790.733 236.973C789.943 239.341 788.394 241.051 786.087 242.103C783.86 243.114 781.412 243.175 778.74 242.284Z" fill="white"/>
</svg>
