<svg width="1402" height="991" viewBox="0 0 1402 991" fill="none" xmlns="http://www.w3.org/2000/svg">
<path d="M259 979V378H229V979H6C2.68629 979 0 981.686 0 985C0 988.314 2.68629 991 6 991H844C847.314 991 850 988.314 850 985C850 981.686 847.314 979 844 979H259Z" fill="black"/>
<path d="M1210 985C1210 981.686 1212.69 979 1216 979H1362C1365.31 979 1368 981.686 1368 985C1368 988.314 1365.31 991 1362 991H1216C1212.69 991 1210 988.314 1210 985Z" fill="black"/>
<path fill-rule="evenodd" clip-rule="evenodd" d="M566 769V985H578V861H1254V985H1266V769H566ZM1254 781H578V849H1254V781Z" fill="black"/>
<path d="M1254 781H578V849H1254V781Z" fill="white"/>
<path d="M754.5 855.998V985.002H742.5V855.998H754.5Z" fill="black"/>
<path d="M1104.5 855.998V985.002H1092.5V855.998H1104.5Z" fill="black"/>
<path d="M930.5 855.998H918.5V985.002H930.5V855.998Z" fill="black"/>
<path fill-rule="evenodd" clip-rule="evenodd" d="M1226.31 20.3637C1225.86 19.9946 1225.37 19.7017 1224.86 19.4835C1223.77 17.9788 1222 17 1220 17H612C609.354 17 607.109 18.7124 606.311 21.0892L432.263 164H432V198H897V780H949V198H1402V164H1401.24L1226.31 20.3637ZM614.809 29.6379C615.051 29.4394 615.273 29.226 615.476 29H661.796L571.95 164H451.173L614.809 29.6379ZM676.211 29H742.362L689.001 164H586.364L676.211 29ZM701.904 164L755.266 29H830.258L802.518 164H701.904ZM814.769 164L842.509 29H917.908V164H814.769ZM929.908 164V29H1002.49L1030.23 164H929.908ZM1042.48 164L1014.74 29H1087.23L1140.6 164H1042.48ZM1153.5 164L1100.14 29H1163.29L1253.14 164H1153.5ZM1267.55 164L1177.7 29H1218.03C1218.23 29.226 1218.45 29.4394 1218.69 29.6379L1382.33 164H1267.55ZM937 770V272H909V770H937Z" fill="black"/>
<path d="M615.476 29C615.273 29.226 615.051 29.4394 614.809 29.6379L451.173 164H571.95L661.796 29H615.476Z" fill="white"/>
<path d="M742.362 29H676.211L586.364 164H689.001L742.362 29Z" fill="white"/>
<path d="M755.266 29L701.904 164H802.518L830.258 29H755.266Z" fill="white"/>
<path d="M842.509 29L814.769 164H917.908V29H842.509Z" fill="white"/>
<path d="M929.908 29V164H1030.23L1002.49 29H929.908Z" fill="white"/>
<path d="M1014.74 29L1042.48 164H1140.6L1087.23 29H1014.74Z" fill="white"/>
<path d="M1100.14 29L1153.5 164H1253.14L1163.29 29H1100.14Z" fill="white"/>
<path d="M1177.7 29L1267.55 164H1382.33L1218.69 29.6379C1218.45 29.4394 1218.23 29.226 1218.03 29H1177.7Z" fill="white"/>
<path d="M937 770V272H909V770H937Z" fill="white"/>
<path fill-rule="evenodd" clip-rule="evenodd" d="M110 89C110 72.4315 123.431 59 140 59H339C355.569 59 369 72.4315 369 89V356C369 372.569 355.569 386 339 386H140C123.431 386 110 372.569 110 356V89ZM140 71H339C348.941 71 357 79.0589 357 89V143.491H122V89C122 79.0589 130.059 71 140 71ZM122 155.491V251.491H357V155.491H122ZM122 290.491V263.491H357V290.491H122ZM122 302.491V356C122 365.941 130.059 374 140 374H339C348.941 374 357 365.941 357 356V302.491H122Z" fill="black"/>
<path d="M122 251.491V155.491H357V251.491H122Z" fill="white"/>
<path d="M122 302.491V356C122 365.941 130.059 374 140 374H339C348.941 374 357 365.941 357 356V302.491H122Z" fill="white"/>
<path d="M339 71H140C130.059 71 122 79.0589 122 89V143.491H357V89C357 79.0589 348.941 71 339 71Z" fill="#F5BFE4"/>
<path d="M122 263.491V290.491H357V263.491H122Z" fill="#F5BFE4"/>
<path fill-rule="evenodd" clip-rule="evenodd" d="M898.293 650.214C907.407 660.705 913 674.888 913 690.5C913 717.814 895.881 740.756 872.735 747.196C848.879 780.686 809.067 799.046 768.094 795.436L713.634 790.636C704.511 789.833 695.482 788.187 686.661 785.722L631.711 770.362C594.544 759.972 570.076 724.548 573.519 686.11C573.882 682.048 574.556 678.019 575.534 674.059L581.141 651.352C583.247 642.823 586.122 634.503 589.733 626.494L597.165 610.007C607.343 587.431 625.631 569.502 648.404 559.774C661.205 554.305 675.017 551.605 688.935 551.849L811.263 553.995L812.67 551.734L820.155 556.391L821.15 556.033L821.601 557.291L841.374 569.592C860.512 581.5 875.947 598.512 885.943 618.715L893.887 634.773C896.286 639.621 897.775 644.854 898.293 650.214ZM794.241 565.698L688.725 563.847C680.85 563.709 673.014 564.644 665.429 566.61L675.738 614.581L679.419 638.116C701.278 645.971 717 667.8 717 693.5C717 725.809 692.152 752 661.5 752C630.848 752 606 725.809 606 693.5C606 666.531 623.314 643.825 646.864 637.056L644.262 620.419L635.736 580.746C623.832 589.518 614.273 601.257 608.105 614.939L600.673 631.425C597.361 638.772 594.723 646.404 592.791 654.228L587.184 676.936C586.353 680.302 585.78 683.727 585.471 687.181C582.545 719.858 603.345 749.973 634.941 758.805L689.892 774.165C698 776.431 706.301 777.944 714.687 778.683L769.148 783.482C802.183 786.393 834.377 773.373 856.081 748.882C828.127 746.954 806 721.553 806 690.5C806 675.485 811.173 661.792 819.677 651.434L810.312 620.527L791.033 566.85L794.241 565.698ZM847.661 633.437L840.702 610.472L828.138 575.49L835.034 579.781C852.276 590.509 866.182 605.835 875.187 624.036L881.738 637.277C874.966 633.889 867.435 632 859.5 632C855.432 632 851.469 632.497 847.661 633.437ZM901 690.5C901 717.213 881.433 737 859.5 737C837.567 737 818 717.213 818 690.5C818 663.787 837.567 644 859.5 644C881.433 644 901 663.787 901 690.5ZM661.5 740C684.937 740 705 719.784 705 693.5C705 667.216 684.937 647 661.5 647C638.063 647 618 667.216 618 693.5C618 719.784 638.063 740 661.5 740Z" fill="black"/>
<path d="M794.241 565.698L688.725 563.847C680.85 563.709 673.014 564.644 665.429 566.61L675.738 614.581L679.419 638.116C701.278 645.971 717 667.8 717 693.5C717 725.809 692.152 752 661.5 752C630.848 752 606 725.809 606 693.5C606 666.531 623.314 643.825 646.864 637.056L644.262 620.419L635.736 580.746C623.832 589.518 614.273 601.257 608.105 614.939L600.673 631.425C597.361 638.772 594.723 646.404 592.791 654.228L587.184 676.936C586.353 680.302 585.78 683.727 585.471 687.181C582.545 719.858 603.345 749.973 634.941 758.805L689.892 774.165C698 776.431 706.301 777.944 714.687 778.683L769.148 783.482C802.183 786.393 834.377 773.373 856.081 748.882C828.127 746.954 806 721.553 806 690.5C806 675.485 811.173 661.792 819.677 651.434L810.312 620.527L791.033 566.85L794.241 565.698Z" fill="white"/>
<path d="M705 693.5C705 719.784 684.937 740 661.5 740C638.063 740 618 719.784 618 693.5C618 667.216 638.063 647 661.5 647C684.937 647 705 667.216 705 693.5Z" fill="white"/>
<path d="M859.5 737C881.433 737 901 717.213 901 690.5C901 663.787 881.433 644 859.5 644C837.567 644 818 663.787 818 690.5C818 717.213 837.567 737 859.5 737Z" fill="white"/>
<path d="M835.034 579.781L828.138 575.49L840.702 610.472L847.661 633.437C851.469 632.497 855.432 632 859.5 632C867.435 632 874.966 633.889 881.738 637.277L875.187 624.036C866.182 605.835 852.276 590.509 835.034 579.781Z" fill="white"/>
<path fill-rule="evenodd" clip-rule="evenodd" d="M761.72 737.06C753.031 722.243 738.191 711.749 720.905 708.716L712.351 707.215C699.583 704.975 686.44 706.488 674.514 711.569C647.763 722.967 631.419 750.322 634.058 779.28L639.039 833.938C640.706 852.231 647.166 869.761 657.766 884.762L661.367 889.857C669.665 901.599 680.926 910.933 694.003 916.908L705.855 922.323C724.918 931.032 747.177 928.929 764.272 916.802C770.603 912.311 775.819 906.745 779.805 900.497L788.547 907.282C802.141 917.832 819.32 922.65 836.417 920.707L837.911 920.537C851.056 919.044 863.366 913.345 873.009 904.289C891.453 886.97 897.384 860.111 887.95 836.635L881.049 819.464C880.962 819.247 880.909 819.018 880.892 818.785L876.984 763.576L870.999 764L876.977 763.491C874.416 733.403 850.638 709.488 820.565 706.754L817.306 706.458C809.707 705.767 802.047 706.669 794.817 709.107L790.956 710.409C777.619 714.907 767.188 724.745 761.72 737.06ZM718.831 720.536C735.618 723.481 749.51 735.252 755.171 751.327C756.45 754.96 757.28 758.736 757.641 762.571L763.49 824.656C763.568 825.486 763.763 826.302 764.068 827.078L773.781 851.749C781.661 871.762 774.871 894.57 757.328 907.015C743.725 916.665 726.012 918.339 710.842 911.408L698.99 905.993C687.841 900.899 678.241 892.942 671.167 882.932L667.566 877.836C658.183 864.558 652.465 849.041 650.99 832.849L646.009 778.191C643.843 754.42 657.259 731.965 679.218 722.609C689.008 718.437 699.797 717.196 710.277 719.035L718.831 720.536ZM768.999 757C769.251 758.473 769.448 759.956 769.588 761.445L775.396 823.092L784.947 847.353C790.43 861.279 790.261 876.281 785.275 889.552L795.905 897.802C807.024 906.432 821.077 910.373 835.062 908.784L836.557 908.614C847.132 907.412 857.036 902.827 864.795 895.542C879.634 881.607 884.406 859.997 876.815 841.11L869.915 823.939C869.362 822.564 869.027 821.111 868.922 819.632L865.017 764.468C862.931 740.197 843.743 720.911 819.478 718.705L816.219 718.408C810.283 717.869 804.299 718.574 798.651 720.478L794.79 721.78C779.675 726.877 769.498 741.049 769.498 757H768.999Z" fill="black"/>
<path d="M768.999 757C769.251 758.473 769.448 759.956 769.588 761.445L775.396 823.092L784.947 847.353C790.43 861.279 790.261 876.281 785.275 889.552L795.905 897.802C807.024 906.432 821.077 910.373 835.062 908.784L836.557 908.614C847.132 907.412 857.036 902.827 864.795 895.542C879.634 881.607 884.406 859.997 876.815 841.11L869.915 823.939C869.362 822.564 869.027 821.111 868.922 819.632L865.017 764.468C862.931 740.197 843.743 720.911 819.478 718.705L816.219 718.408C810.283 717.869 804.299 718.574 798.651 720.478L794.79 721.78C779.675 726.877 769.498 741.049 769.498 757H768.999Z" fill="white"/>
<path d="M755.171 751.327C749.51 735.252 735.618 723.481 718.831 720.536L710.277 719.035C699.797 717.196 689.008 718.437 679.218 722.609C657.259 731.965 643.843 754.42 646.009 778.191L650.99 832.849C652.465 849.041 658.183 864.558 667.566 877.836L671.167 882.932C678.241 892.942 687.841 900.899 698.99 905.993L710.842 911.408C726.012 918.339 743.725 916.665 757.328 907.015C774.871 894.57 781.661 871.762 773.781 851.749L764.068 827.078C763.763 826.302 763.568 825.486 763.49 824.656L757.641 762.571C757.28 758.736 756.45 754.96 755.171 751.327Z" fill="white"/>
<path d="M737.567 330.761C736.33 327.686 732.835 326.197 729.761 327.434C726.687 328.67 725.197 332.165 726.434 335.239L737.842 363.6C739.079 366.674 742.573 368.164 745.648 366.927C748.722 365.69 750.212 362.195 748.975 359.121L737.567 330.761Z" fill="black"/>
<path d="M704.692 335.082C703.455 332.008 699.96 330.518 696.886 331.755C693.812 332.992 692.322 336.486 693.559 339.561L704.967 367.921C706.204 370.995 709.698 372.485 712.773 371.248C715.847 370.012 717.337 366.517 716.1 363.442L704.692 335.082Z" fill="black"/>
<path fill-rule="evenodd" clip-rule="evenodd" d="M738.254 458.715C765.097 453.533 784.927 439.336 782.547 427.005C780.166 414.674 756.477 408.878 729.634 414.06C702.791 419.241 682.961 433.438 685.341 445.769C687.722 458.101 711.412 463.896 738.254 458.715ZM770.595 429.312C770.003 428.671 768.072 427.006 762.412 425.621C754.869 423.776 744.028 423.503 731.908 425.842C719.789 428.182 709.829 432.47 703.514 436.991C698.776 440.383 697.604 442.646 697.293 443.462C697.885 444.104 699.816 445.768 705.476 447.153C713.019 448.999 723.86 449.272 735.98 446.932C748.099 444.593 758.059 440.304 764.374 435.784C769.112 432.392 770.284 430.128 770.595 429.312Z" fill="black"/>
<path fill-rule="evenodd" clip-rule="evenodd" d="M877 439.5C877 519.857 808.947 585 725 585C641.053 585 573 519.857 573 439.5C573 359.143 641.053 294 725 294C808.947 294 877 359.143 877 439.5ZM865 439.5C865 512.741 802.82 573 725 573C647.18 573 585 512.741 585 439.5C585 366.259 647.18 306 725 306C802.82 306 865 366.259 865 439.5Z" fill="black"/>
<path fill-rule="evenodd" clip-rule="evenodd" d="M725 573C802.82 573 865 512.741 865 439.5C865 366.259 802.82 306 725 306C647.18 306 585 366.259 585 439.5C585 512.741 647.18 573 725 573ZM737.567 330.761C736.33 327.686 732.835 326.197 729.761 327.434C726.687 328.67 725.197 332.165 726.434 335.239L737.842 363.6C739.079 366.674 742.573 368.164 745.648 366.927C748.722 365.69 750.212 362.195 748.975 359.121L737.567 330.761ZM704.692 335.082C703.455 332.008 699.96 330.518 696.886 331.755C693.812 332.992 692.322 336.486 693.559 339.561L704.967 367.921C706.204 370.995 709.698 372.485 712.773 371.248C715.847 370.012 717.337 366.517 716.1 363.442L704.692 335.082ZM738.254 458.715C765.097 453.533 784.927 439.336 782.547 427.005C780.166 414.674 756.477 408.878 729.634 414.06C702.791 419.241 682.961 433.438 685.341 445.769C687.722 458.101 711.412 463.896 738.254 458.715Z" fill="white"/>
<path d="M762.412 425.621C768.072 427.006 770.003 428.671 770.595 429.312C770.284 430.128 769.112 432.392 764.374 435.784C758.059 440.304 748.099 444.593 735.98 446.932C723.86 449.272 713.019 448.999 705.476 447.153C699.816 445.768 697.885 444.104 697.293 443.462C697.604 442.646 698.776 440.383 703.514 436.991C709.829 432.47 719.789 428.182 731.908 425.842C744.028 423.503 754.869 423.776 762.412 425.621Z" fill="white"/>
<path fill-rule="evenodd" clip-rule="evenodd" d="M148.068 177.862C149.422 173.766 153.249 171 157.563 171H189.844C194.232 171 198.108 173.861 199.4 178.055L203.175 190.307C204.379 194.212 204.772 198.322 204.33 202.385L203.346 211.433C203.125 213.462 201.411 215 199.369 215H148.088C146.091 215 144.4 213.528 144.126 211.55L142.959 203.138C142.328 198.591 142.749 193.96 144.189 189.602L148.068 177.862ZM154.221 178.065C154.625 176.833 155.775 176 157.071 176H190.533C191.784 176 192.903 176.776 193.342 177.947L196.408 186.122C196.489 186.34 196.545 186.566 196.575 186.797L197.57 194.621C197.798 196.414 196.401 198 194.594 198H153.406C151.599 198 150.202 196.414 150.43 194.621L151.433 186.734C151.457 186.545 151.499 186.359 151.559 186.178L154.221 178.065ZM155 201C152.239 201 150 203.239 150 206C150 208.761 152.239 211 155 211H159C161.761 211 164 208.761 164 206C164 203.239 161.761 201 159 201H155ZM184 206C184 203.239 186.239 201 189 201H193C195.761 201 198 203.239 198 206C198 208.761 195.761 211 193 211H189C186.239 211 184 208.761 184 206Z" fill="#F5BFE4"/>
<path d="M229 186C225.134 186 222 189.134 222 193C222 196.866 225.134 200 229 200H295C298.866 200 302 196.866 302 193C302 189.134 298.866 186 295 186H229Z" fill="#F5BFE4"/>
<path d="M229 214C225.134 214 222 217.134 222 221C222 224.866 225.134 228 229 228H314C317.866 228 321 224.866 321 221C321 217.134 317.866 214 314 214H229Z" fill="#F5BFE4"/>
<path d="M337 336.5C337 348.926 326.926 359 314.5 359C302.074 359 292 348.926 292 336.5C292 324.074 302.074 314 314.5 314C326.926 314 337 324.074 337 336.5Z" fill="#F5BFE4"/>
<path d="M159 234C163.418 234 167 230.418 167 226C167 221.582 163.418 218 159 218C154.582 218 151 221.582 151 226C151 230.418 154.582 234 159 234Z" fill="#F5BFE4"/>
<path d="M196 226C196 230.418 192.418 234 188 234C183.582 234 180 230.418 180 226C180 221.582 183.582 218 188 218C192.418 218 196 221.582 196 226Z" fill="#F5BFE4"/>
<path fill-rule="evenodd" clip-rule="evenodd" d="M735 27.5C735 42.6878 717.069 50.5 700.5 50.5C683.931 50.5 675 42.6878 675 27.5C675 12.3122 688.431 0 705 0C721.569 0 735 12.3122 735 27.5ZM723 27.5C723 29.5499 722.038 31.9084 717.883 34.3497C713.558 36.8916 707.143 38.5 700.5 38.5C693.903 38.5 690.854 36.9296 689.539 35.7532C688.457 34.7846 687 32.7097 687 27.5C687 19.9011 694.055 12 705 12C715.945 12 723 19.9011 723 27.5Z" fill="black"/>
<path fill-rule="evenodd" clip-rule="evenodd" d="M1184 55.5C1184 70.6878 1171.91 79.5 1157 79.5C1142.09 79.5 1130 70.6878 1130 55.5C1130 40.3122 1142.09 28 1157 28C1171.91 28 1184 40.3122 1184 55.5ZM1172 55.5C1172 59.6193 1170.49 62.2286 1168.38 64.0044C1166.04 65.9654 1162.19 67.5 1157 67.5C1151.81 67.5 1147.96 65.9654 1145.62 64.0044C1143.51 62.2286 1142 59.6193 1142 55.5C1142 46.7311 1148.92 40 1157 40C1165.08 40 1172 46.7311 1172 55.5Z" fill="black"/>
<path fill-rule="evenodd" clip-rule="evenodd" d="M1010.5 71C1021.27 71 1030 64.4934 1030 54C1030 43.5066 1021.27 35 1010.5 35C999.73 35 991 43.5066 991 54C991 64.4934 999.73 71 1010.5 71ZM1016.61 57.2134C1017.45 56.5131 1018 55.6188 1018 54C1018 50.4259 1014.94 47 1010.5 47C1006.06 47 1003 50.4259 1003 54C1003 55.6188 1003.55 56.5131 1004.39 57.2134C1005.42 58.075 1007.45 59 1010.5 59C1013.55 59 1015.58 58.075 1016.61 57.2134Z" fill="black"/>
<path fill-rule="evenodd" clip-rule="evenodd" d="M894 88C894 96.2843 886.613 103 877.5 103C868.387 103 861 96.2843 861 88C861 79.7157 868.387 73 877.5 73C886.613 73 894 79.7157 894 88ZM882 88C882 88.4362 881.83 89.059 881.095 89.7273C880.341 90.4127 879.102 91 877.5 91C875.898 91 874.659 90.4127 873.905 89.7273C873.17 89.059 873 88.4362 873 88C873 87.5638 873.17 86.941 873.905 86.2727C874.659 85.5873 875.898 85 877.5 85C879.102 85 880.341 85.5873 881.095 86.2727C881.83 86.941 882 87.5638 882 88Z" fill="black"/>
<path d="M717.883 34.3497C722.038 31.9084 723 29.5499 723 27.5C723 19.9011 715.945 12 705 12C694.055 12 687 19.9011 687 27.5C687 32.7097 688.457 34.7846 689.539 35.7532C690.854 36.9296 693.903 38.5 700.5 38.5C707.143 38.5 713.558 36.8916 717.883 34.3497Z" fill="white"/>
<path d="M881.095 89.7273C881.83 89.059 882 88.4362 882 88C882 87.5638 881.83 86.941 881.095 86.2727C880.341 85.5873 879.102 85 877.5 85C875.898 85 874.659 85.5873 873.905 86.2727C873.17 86.941 873 87.5638 873 88C873 88.4362 873.17 89.059 873.905 89.7273C874.659 90.4127 875.898 91 877.5 91C879.102 91 880.341 90.4127 881.095 89.7273Z" fill="white"/>
<path d="M1018 54C1018 55.6188 1017.45 56.5131 1016.61 57.2134C1015.58 58.075 1013.55 59 1010.5 59C1007.45 59 1005.42 58.075 1004.39 57.2134C1003.55 56.5131 1003 55.6188 1003 54C1003 50.4259 1006.06 47 1010.5 47C1014.94 47 1018 50.4259 1018 54Z" fill="white"/>
<path d="M1168.38 64.0044C1170.49 62.2286 1172 59.6193 1172 55.5C1172 46.7311 1165.08 40 1157 40C1148.92 40 1142 46.7311 1142 55.5C1142 59.6193 1143.51 62.2286 1145.62 64.0044C1147.96 65.9654 1151.81 67.5 1157 67.5C1162.19 67.5 1166.04 65.9654 1168.38 64.0044Z" fill="white"/>
</svg>
